<svg width="488" height="488" viewBox="0 0 488 488" fill="none" xmlns="http://www.w3.org/2000/svg">
<path d="M209.021 1.15492C116.771 15.779 41.1301 79.2836 11.9143 166.628C-5.69513 219.314 -3.69406 283.62 17.3173 334.905C67.3442 457.707 204.418 518.006 329.685 472.131C409.328 443.083 469.161 371.164 484.969 285.824C488.771 264.589 488.771 225.124 484.969 202.887C468.36 107.33 397.922 30.8038 304.272 6.76416C284.461 1.75591 276.057 0.754264 250.843 0.153274C234.434 -0.247386 215.624 0.153274 209.021 1.15492ZM217.025 122.355C232.833 131.57 238.837 155.209 229.231 169.632C223.228 178.647 212.622 185.459 205.018 185.459C194.813 185.258 182.606 178.447 176.603 169.632C166.398 154.007 168.199 134.775 181.005 123.356C190.21 115.343 204.218 114.942 217.025 122.355ZM305.873 122.555C314.277 129.767 317.879 137.379 317.879 148.798C317.679 170.834 296.267 189.465 276.457 184.457C268.252 182.454 256.446 169.432 254.845 160.818C250.643 138.181 267.052 117.346 289.064 117.346C297.468 117.346 300.87 118.348 305.873 122.555ZM158.193 186.661C173.601 194.674 181.206 214.306 174.802 230.733C162.195 263.988 113.769 250.566 113.769 213.705C113.769 187.863 135.181 174.841 158.193 186.661ZM361.903 187.262C369.507 192.47 376.311 207.094 375.31 215.708C372.909 235.341 360.302 247.962 342.292 248.963C322.682 250.365 311.276 238.947 311.476 218.313C311.476 206.694 314.878 198.881 323.282 191.068C333.488 181.452 350.897 179.649 361.903 187.262ZM261.449 196.477C274.856 200.483 286.062 211.301 290.865 224.523C300.07 250.766 308.074 264.389 321.881 278.011C329.485 285.624 338.09 295.64 340.892 300.248C350.897 317.676 349.496 336.507 336.689 351.332C321.681 368.961 298.669 374.169 274.456 365.555C255.446 358.944 231.633 358.944 214.223 365.555C178.204 379.178 141.384 358.143 140.984 323.686C140.984 308.862 148.188 295.039 163.996 280.215C179.204 265.591 186.408 254.773 192.011 237.945C197.414 221.318 201.016 213.905 206.619 207.896C218.225 194.874 240.638 190.266 261.449 196.477Z" fill="white"/>
</svg>
