<svg width="412" height="411" viewBox="0 0 412 411" fill="none" xmlns="http://www.w3.org/2000/svg">
<path d="M81.4534 1.62703C29.8256 10.6419 -6.19384 60.5241 1.21014 112.61C4.81208 138.653 13.4167 153.878 41.0316 182.325L64.044 206.164L41.0316 229.603C16.4183 254.844 11.4156 261.655 5.61251 278.483C-6.79417 314.743 1.61036 352.405 28.4248 380.251C49.236 401.686 69.647 410.1 100.664 410.3C132.481 410.3 150.09 401.886 181.507 371.036C194.314 358.415 205.72 348.198 206.721 348.198C207.721 348.198 218.927 358.615 231.534 371.236C262.751 402.688 278.359 410.1 312.778 410.3C376.612 410.501 422.637 353.006 409.43 289.702C405.028 268.667 396.223 254.644 371.209 228.801L347.797 204.762L370.609 181.924C385.217 167.3 395.623 155.08 399.425 147.868C420.436 108.403 413.832 60.1234 383.016 29.6732C354.801 1.4267 313.578 -7.38782 276.158 6.63528C259.549 13.0458 249.144 20.8587 225.731 44.4977L206.721 63.529L183.508 41.092C157.694 16.0508 143.287 7.03594 122.075 2.62868C107.467 -0.576601 95.661 -0.776931 81.4534 1.62703ZM335.39 17.4531C360.404 25.266 379.014 41.4927 390.22 65.332C396.223 77.7524 396.623 80.3567 396.623 99.7887C396.623 119.621 396.223 121.625 389.819 134.846C384.417 145.664 378.013 154.078 360.404 171.908L337.791 194.945L277.159 134.246L216.526 73.5455L239.539 51.1085C262.751 28.4713 273.557 21.2594 291.567 16.4515C304.774 12.8455 321.583 13.2462 335.39 17.4531ZM99.0628 40.6914C99.4631 43.496 91.4587 52.7112 71.448 72.7442C47.435 96.5835 42.8326 100.39 39.8309 98.5868C32.2268 93.7788 34.6281 89.5719 61.8428 62.327C83.4544 40.4911 89.4577 35.6831 93.4598 36.0838C96.6615 36.4845 98.6626 38.0871 99.0628 40.6914ZM143.087 53.5125C143.687 57.5191 136.283 65.933 101.064 101.191C57.8406 144.663 53.8385 147.467 48.6357 139.454C46.8347 136.449 52.6378 129.638 90.4582 91.7755C135.683 46.501 141.486 42.0937 143.087 53.5125ZM189.311 139.855C198.917 144.863 202.719 171.307 195.315 180.722C184.109 194.945 165.499 180.121 165.499 157.283C165.499 141.658 177.105 133.244 189.311 139.855ZM241.339 141.658C253.746 154.078 243.941 185.931 227.932 185.931C220.528 185.931 213.725 178.719 212.124 169.103C210.723 160.288 216.126 145.063 222.129 140.856C228.132 136.649 236.737 137.05 241.339 141.658ZM160.296 174.912C178.506 191.74 167.7 219.987 146.288 210.972C132.881 205.363 126.277 183.126 135.482 173.911C141.286 168.101 153.492 168.502 160.296 174.912ZM276.358 172.909C283.962 180.522 282.562 194.345 273.157 204.962C268.154 210.972 265.753 211.974 258.749 211.974C249.544 211.974 245.142 208.768 242.54 200.354C240.739 193.944 246.542 178.919 252.946 173.911C259.149 169.103 271.956 168.502 276.358 172.909ZM228.533 204.762C241.339 210.571 250.544 221.189 254.547 234.41C258.949 249.435 258.349 253.642 250.945 261.054C243.341 268.667 234.536 271.672 214.125 273.475C190.712 275.478 162.697 267.866 157.494 258.25C154.293 252.24 155.093 237.816 159.295 229.002C163.698 219.386 178.706 205.363 187.911 202.558C199.917 198.551 217.527 199.553 228.533 204.762ZM138.484 278.082L196.515 336.378L173.503 358.815C156.494 375.443 147.089 382.855 137.484 387.663C103.465 404.29 67.6459 398.28 40.2312 371.236C12.8164 343.991 6.41294 308.533 22.8218 274.877C30.4259 258.851 72.2484 215.179 77.2511 217.983C79.0521 218.985 106.667 246.03 138.484 278.082ZM361.204 268.467C362.605 269.869 363.605 272.273 363.605 274.076C363.605 275.678 343.795 296.913 319.782 320.953C279.96 360.819 275.558 364.425 271.756 362.421C269.355 361.019 267.554 358.615 267.554 356.612C267.554 353.006 353.2 266.063 356.602 266.063C357.802 266.063 359.803 267.064 361.204 268.467ZM375.612 316.345C377.613 320.152 375.412 323.157 352.199 346.595C338.192 360.819 324.985 373.44 323.184 374.441C319.181 376.645 314.379 375.042 312.778 370.835C311.177 366.829 364.606 312.139 370.009 312.139C371.81 312.139 374.411 313.942 375.612 316.345Z" fill="white"/>
</svg>
