<svg width="381" height="487" viewBox="0 0 381 487" fill="none" xmlns="http://www.w3.org/2000/svg">
<path d="M163.842 2.95701C147.633 7.36427 130.424 17.3808 117.817 29.8012C86 61.253 78.596 109.733 99.007 152.003C104.21 162.62 124.02 184.656 136.427 193.07L142.23 197.277L125.421 203.487C102.809 212.302 85.7999 222.519 69.1909 237.944C45.9784 259.379 31.7708 284.22 16.9628 329.295C6.35708 361.347 1.55449 384.185 0.353847 411.43C-1.84734 451.095 6.15697 472.33 26.1677 481.746C36.5734 486.554 36.9736 486.554 103.609 486.554C164.842 486.554 171.446 486.153 178.85 482.747C189.055 478.14 191.057 472.13 186.454 460.511C182.052 449.893 170.245 439.476 147.633 427.456C105.41 404.418 85.3996 379.177 79.5965 340.713C77.3953 326.49 79.7966 295.239 83.3986 291.633C84.199 290.831 89.802 294.037 95.6051 299.045C102.409 304.854 108.212 308.26 111.414 308.26C121.619 308.06 190.056 292.835 191.657 290.23C192.457 288.828 195.259 280.214 197.66 270.999C200.262 261.783 202.863 254.171 203.663 254.171C205.464 254.171 215.67 267.192 221.073 276.207C225.475 283.82 230.478 296.641 233.479 309.262C235.28 316.474 236.481 317.675 245.286 320.68C259.093 325.689 282.906 341.915 294.912 354.536C305.918 365.955 317.725 381.781 317.725 384.786C317.725 385.788 314.323 387.991 310.321 389.794C293.312 396.806 242.284 421.446 231.478 427.657C205.664 442.882 188.255 464.718 193.258 475.736C197.86 485.752 203.863 486.554 275.902 486.554C322.527 486.554 344.739 485.752 350.542 484.15C361.548 480.744 372.354 469.325 376.957 456.304C382.159 441.279 382.159 396.606 376.957 372.366C371.154 345.121 356.946 304.253 345.54 281.816C336.735 264.588 331.932 258.177 316.724 242.952C297.714 223.721 282.906 214.105 257.492 204.088C249.888 201.284 243.285 198.279 242.484 197.678C241.884 197.077 245.286 193.671 250.288 190.466C286.308 165.625 302.917 121.552 292.711 78.0808C284.107 42.2217 254.691 12.1722 218.671 2.75668C204.064 -1.04959 178.25 -0.849262 163.842 2.95701Z" fill="white"/>
<path d="M165.041 338.31C145.83 344.32 142.829 349.929 153.835 359.144C163.04 366.957 177.247 366.556 185.452 358.343C191.455 352.333 195.257 340.513 192.655 336.507C190.854 333.301 178.048 334.103 165.041 338.31Z" fill="white"/>
</svg>
