<svg width="1923" height="605" viewBox="0 0 1923 605" fill="none" xmlns="http://www.w3.org/2000/svg">
<path d="M87 0C97.23 0 107.46 0 118 0C118.946 2.13469 119.892 4.26938 120.867 6.46875C128.199 22.9998 135.568 39.5138 143 56C148.703 68.6507 154.375 81.3144 160 94C166.843 109.431 173.754 124.832 180.691 140.221C181.389 141.771 182.087 143.321 182.784 144.871C184.685 149.097 186.602 153.316 188.536 157.527C188.953 158.441 189.37 159.355 189.8 160.297C190.608 162.064 191.419 163.829 192.236 165.592C192.598 166.387 192.959 167.181 193.332 168C193.655 168.701 193.977 169.402 194.31 170.125C195 172 195 172 195 175C195.66 175 196.32 175 197 175C197.091 174.345 197.182 173.689 197.276 173.014C198.234 169.024 199.871 165.502 201.578 161.781C201.941 160.979 202.304 160.177 202.678 159.351C203.864 156.732 205.057 154.116 206.25 151.5C207.076 149.68 207.901 147.859 208.725 146.038C210.378 142.388 212.034 138.739 213.691 135.091C216.755 128.342 219.786 121.578 222.813 114.812C223.855 112.484 224.898 110.156 225.941 107.828C226.447 106.7 226.952 105.571 227.473 104.408C229.011 100.975 230.55 97.5421 232.09 94.1094C238.959 78.7932 245.817 63.4726 252.669 48.1489C256.075 40.5331 259.484 32.9186 262.902 25.3086C263.508 23.9603 264.113 22.612 264.719 21.2637C265.834 18.7814 266.95 16.2997 268.066 13.8184C268.559 12.722 269.051 11.6257 269.559 10.4961C269.985 9.5492 270.411 8.6023 270.849 7.62671C271.953 5.10722 272.978 2.55389 274 0C283.9 0 293.8 0 304 0C304 70.29 304 140.58 304 213C294.76 213 285.52 213 276 213C275.67 161.85 275.34 110.7 275 58C263.194 84.5636 263.194 84.5636 251.397 111.132C243.839 128.159 236.238 145.167 228.577 162.149C220.952 179.055 213.457 196.018 206 213C199.4 213 192.8 213 186 213C176.59 192.257 167.192 171.51 157.967 150.684C154.204 142.19 150.425 133.705 146.602 125.238C146.224 124.401 145.846 123.563 145.456 122.7C143.667 118.738 141.876 114.777 140.08 110.818C131.86 92.6264 123.979 74.3055 116 56C115.67 107.81 115.34 159.62 115 213C105.76 213 96.52 213 87 213C87 142.71 87 72.42 87 0Z" fill="black"/>
<path d="M468.019 56.2748C473.696 61.2543 478.813 66.7153 483.004 73.0014C483.334 63.4314 483.664 53.8614 484.004 44.0014C493.244 44.0014 502.484 44.0014 512.004 44.0014C512.004 99.7714 512.004 155.541 512.004 213.001C502.764 213.001 493.524 213.001 484.004 213.001C483.674 203.101 483.344 193.201 483.004 183.001C478.983 188.361 478.983 188.361 474.969 193.724C467.863 201.96 457.985 207.12 448.004 211.001C446.996 211.415 445.988 211.829 444.949 212.255C426.193 218.836 403.801 216.104 386.004 208.001C366.804 197.708 352.96 181.07 346.066 160.525C337.963 133.654 338.828 106.515 351.816 81.3139C354.993 75.724 358.784 70.8382 363.004 66.0014C363.55 65.3362 364.097 64.6711 364.66 63.9858C390.037 35.6097 438.414 33.9554 468.019 56.2748ZM392.004 77.0014C391.346 77.4745 390.689 77.9476 390.012 78.435C378.705 87.3046 371.957 102.027 370.004 116.001C369.728 119.591 369.669 123.152 369.691 126.751C369.696 127.711 369.701 128.672 369.706 129.661C370.003 147.77 375.871 163.398 388.316 176.751C399.874 187.643 413.449 190.629 428.832 190.472C445.237 189.944 458.245 183.924 469.644 171.997C472.366 168.542 474.45 165.038 476.441 161.126C476.918 160.192 476.918 160.192 477.405 159.238C482.253 149.001 483.494 138.722 483.379 127.501C483.39 126.368 483.402 125.235 483.414 124.068C483.356 107.057 477.587 93.4349 466.004 81.0014C453.095 69.0262 437.874 65.1249 420.633 65.6576C409.589 66.2894 400.826 70.5479 392.004 77.0014Z" fill="black"/>
<path d="M1328.83 55.0312C1335.54 60.2351 1339.42 65.0224 1345 72C1345.33 62.76 1345.66 53.52 1346 44C1355.24 44 1364.48 44 1374 44C1374 99.77 1374 155.54 1374 213C1364.76 213 1355.52 213 1346 213C1345.67 203.43 1345.34 193.86 1345 184C1340.55 189.445 1340.55 189.445 1336 195C1318.72 210.824 1299.71 216.054 1276.8 215.383C1257.02 214.357 1239.14 205.265 1225.57 190.844C1206.33 168.25 1202 141.959 1204 113C1205.59 97.2155 1212.45 82.5786 1222 70C1222.73 69.0274 1222.73 69.0274 1223.47 68.0351C1248.16 37.4711 1297.41 32.4624 1328.83 55.0312ZM1243.69 87.9375C1232.6 103.903 1229.32 123.374 1232.7 142.406C1235.88 157.527 1243.24 171.589 1255.88 180.875C1271 190.705 1287.21 192.296 1304.9 189.352C1307.78 188.448 1310.32 187.39 1313 186C1314.55 185.219 1314.55 185.219 1316.13 184.422C1330.97 176.347 1338.91 164.026 1343.91 148.117C1348.54 130.995 1347.35 110.743 1339 95C1330.18 81.013 1319.04 71.1968 1302.83 66.6562C1297.97 65.8229 1293.24 65.6071 1288.32 65.5625C1287.45 65.5522 1286.58 65.542 1285.69 65.5315C1268.7 65.762 1254.09 74.806 1243.69 87.9375Z" fill="black"/>
<path d="M978.812 41.7513C980.542 41.7636 980.542 41.7636 982.308 41.7762C1006.75 42.098 1026.81 50.4667 1044 68.0013C1059.37 84.1746 1065.37 105.437 1065.31 127.251C1065.33 128.472 1065.34 129.693 1065.36 130.951C1065.37 155.331 1056.02 175.959 1039 193.001C1038.34 193.67 1037.68 194.339 1037.01 195.029C1021.77 209.447 1000.58 215.621 980.062 215.376C978.833 215.367 977.604 215.357 976.338 215.348C967.87 215.207 960.081 214.713 952 212.001C950.515 211.508 950.515 211.508 949 211.005C928.23 203.189 912.27 188.104 902.888 168.087C893.155 145.246 892.269 115.962 901.25 92.8138C906.04 82.1916 911.771 73.2706 920 65.0013C920.725 64.2407 921.451 63.4802 922.199 62.6966C937.364 47.8149 958.008 41.5723 978.812 41.7513ZM937.984 83.5482C931.118 92.036 926.937 101.256 925 112.001C924.828 112.778 924.657 113.555 924.481 114.356C923.676 118.781 923.815 123.202 923.812 127.689C923.8 128.632 923.788 129.575 923.775 130.546C923.742 146.825 928.745 163.748 940 175.814C951.452 186.597 966.014 191.532 981.59 191.423C994.857 190.973 1009.36 185.361 1019.06 176.161C1033.72 159.814 1038.07 141.225 1037.2 119.725C1036.07 104.001 1029.05 90.1409 1018 79.0013C1014.5 76.3144 1010.87 74.1093 1007 72.0013C1006.3 71.5914 1005.6 71.1814 1004.87 70.7591C983.366 58.8771 954.247 66.505 937.984 83.5482Z" fill="black"/>
<path d="M659.908 55.0286C668.637 63.2683 675.632 71.9537 677.998 84.0012C677.998 87.3012 677.998 90.6012 677.998 94.0012C668.758 94.0012 659.518 94.0012 649.998 94.0012C649.338 90.7012 648.678 87.4012 647.998 84.0012C643.398 74.9541 635.321 70.1398 625.998 67.0012C616.689 64.1641 603.949 65.2881 595.162 69.2942C589.61 72.4612 585.877 75.619 582.748 81.2512C581.263 86.696 581.204 91.879 583.436 97.1262C591.531 111.195 611.28 114.488 625.701 118.501C644.945 123.891 664.818 129.618 675.814 147.779C680.919 157.365 681.796 168.225 679.014 178.712C676.958 184.258 674.623 189.324 670.998 194.001C670.103 195.192 670.103 195.192 669.189 196.407C659.447 207.938 643.671 213.648 628.998 215.001C613.029 215.834 596.403 215.782 581.998 208.001C581.106 207.558 580.214 207.114 579.295 206.657C566.111 199.885 557.053 190.074 551.998 176.001C550.595 171.558 549.998 167.716 549.998 163.001C559.568 163.001 569.138 163.001 578.998 163.001C580.318 166.961 581.638 170.921 582.998 175.001C588.816 183.486 597.754 188.731 607.896 190.755C620.484 192.229 634.591 190.773 644.998 183.001C650.783 178.114 651.61 171.962 652.311 164.814C651.737 159.655 649.723 156.317 645.811 153.001C635.394 145.665 621.351 142.775 609.264 139.388C588.82 133.645 568.532 127.824 557.186 108.376C552.12 99.2945 552.587 85.7161 554.682 75.7473C555.601 73.311 556.628 71.2126 557.998 69.0012C558.422 68.3129 558.846 67.6245 559.283 66.9153C567.599 54.8233 580.979 46.8924 594.998 43.0012C616.637 39.3561 642.478 40.2597 659.908 55.0286Z" fill="black"/>
<path d="M844.618 58.1757C855.794 67.5649 865.239 80.3697 867.999 95.0006C867.999 95.9906 867.999 96.9806 867.999 98.0006C858.099 98.0006 848.199 98.0006 837.999 98.0006C836.679 95.0306 835.359 92.0606 833.999 89.0006C827.288 76.4106 816.758 71.25 803.643 66.8834C799.651 65.9163 795.895 65.6555 791.811 65.6881C791.067 65.6938 790.324 65.6994 789.557 65.7052C778.44 65.9473 769.359 69.0037 759.999 75.0006C759.363 75.4067 758.728 75.8127 758.073 76.2311C746.75 84.6909 741.909 98.8067 739.421 112.087C738.806 117.788 738.774 123.457 738.749 129.188C738.728 130.344 738.708 131.499 738.686 132.69C738.613 149.106 743.438 165.164 755.03 177.09C767.601 188.975 780.47 190.598 797.081 190.305C809.791 189.822 820.011 185.382 828.874 176.02C832.531 171.44 834.813 166.404 836.999 161.001C837.329 160.341 837.659 159.681 837.999 159.001C847.899 159.001 857.799 159.001 867.999 159.001C863.894 177.471 853.731 192.68 837.741 203.13C817.411 215.522 790.958 219.104 767.749 213.501C755.616 209.508 744.444 203.645 734.999 195.001C733.959 194.098 733.959 194.098 732.897 193.176C719.351 180.702 713.987 163.361 709.999 146.001C709.821 145.386 709.643 144.771 709.46 144.137C708.432 139.372 708.814 134.354 708.811 129.501C708.799 128.379 708.787 127.258 708.774 126.102C708.737 104.368 715.389 83.363 729.999 67.0006C730.677 66.2285 731.355 65.4563 732.054 64.6608C759.652 35.0914 813.467 33.1564 844.618 58.1757Z" fill="black"/>
<path d="M1108 2.00146C1117.57 2.00146 1127.14 2.00146 1137 2.00146C1137 15.8615 1137 29.7215 1137 44.0015C1151.19 44.0015 1165.38 44.0015 1180 44.0015C1180 51.5915 1180 59.1815 1180 67.0015C1165.48 67.0015 1150.96 67.0015 1136 67.0015C1136.09 80.2757 1136.18 93.5497 1136.29 106.824C1136.34 112.988 1136.39 119.152 1136.43 125.316C1136.46 131.268 1136.51 137.221 1136.56 143.173C1136.58 145.44 1136.6 147.707 1136.61 149.975C1136.62 153.158 1136.65 156.341 1136.69 159.525C1136.69 160.455 1136.69 161.386 1136.69 162.345C1136.78 169.477 1137.37 177.693 1141 184.001C1148.83 188.646 1159.83 188.369 1168.63 188.626C1174.26 188.812 1174.26 188.812 1180 189.001C1180 196.591 1180 204.181 1180 212.001C1174.83 212.094 1169.66 212.174 1164.48 212.221C1162.73 212.241 1160.97 212.268 1159.22 212.303C1143.64 212.606 1130.4 211.283 1118.26 200.447C1108.79 190.597 1107.68 174.992 1107.78 162.022C1107.78 160.987 1107.78 159.951 1107.78 158.884C1107.78 155.503 1107.79 152.121 1107.81 148.74C1107.81 146.379 1107.82 144.018 1107.82 141.657C1107.82 135.474 1107.84 129.292 1107.87 123.109C1107.89 116.787 1107.9 110.466 1107.91 104.144C1107.93 91.7631 1107.96 79.3823 1108 67.0015C1101.07 67.0015 1094.14 67.0015 1087 67.0015C1087 59.4115 1087 51.8215 1087 44.0015C1093.93 44.0015 1100.86 44.0015 1108 44.0015C1108 30.1415 1108 16.2815 1108 2.00146Z" fill="black"/>
<path d="M28 293C52.75 293 77.5 293 103 293C125.874 351.919 148.658 410.876 171 470C176.424 456.557 181.705 443.065 186.892 429.529C189.071 423.844 191.255 418.16 193.438 412.476C193.892 411.293 194.346 410.109 194.815 408.889C200.358 394.457 205.932 380.037 211.505 365.616C216.477 352.748 221.437 339.876 226.355 326.988C226.779 325.88 227.202 324.771 227.638 323.629C229.64 318.387 231.638 313.144 233.631 307.899C234.334 306.058 235.036 304.216 235.738 302.375C236.057 301.533 236.376 300.691 236.704 299.824C238.887 294.113 238.887 294.113 240 293C242.343 292.905 244.655 292.874 246.998 292.886C248.096 292.886 248.096 292.886 249.215 292.886C251.645 292.887 254.074 292.894 256.504 292.902C258.184 292.904 259.864 292.905 261.544 292.906C265.975 292.91 270.405 292.92 274.836 292.931C279.353 292.941 283.871 292.946 288.389 292.951C297.259 292.962 306.13 292.979 315 293C316.179 302.142 317.288 311.272 318.078 320.457C318.17 321.493 318.262 322.53 318.356 323.598C318.657 327.003 318.953 330.407 319.25 333.812C319.467 336.271 319.683 338.729 319.901 341.188C320.303 345.749 320.706 350.31 321.107 354.87C322.243 367.789 323.403 380.705 324.562 393.622C324.941 397.851 325.32 402.079 325.698 406.308C326.84 419.059 327.982 431.81 329.129 444.56C329.754 451.498 330.377 458.437 331 465.375C331.061 466.056 331.122 466.738 331.186 467.44C332.694 484.241 334.184 501.043 335.641 517.847C335.742 519.021 335.742 519.021 335.846 520.218C336.504 527.809 337.161 535.401 337.814 542.993C338.052 545.763 338.291 548.534 338.53 551.305C338.701 553.283 338.871 555.261 339.041 557.239C339.523 562.79 340.021 568.336 340.615 573.875C340.71 574.76 340.804 575.646 340.902 576.558C341.07 578.099 341.244 579.64 341.429 581.179C342.24 588.546 342 595.422 342 603C318.9 603 295.8 603 272 603C269.58 575.129 269.58 575.129 268.711 564.734C268.619 563.634 268.619 563.634 268.525 562.512C266.437 537.475 264.47 512.428 262.498 487.381C262.187 483.437 261.875 479.493 261.562 475.548C261.062 469.243 260.566 462.936 260.073 456.63C259.888 454.272 259.702 451.915 259.514 449.557C259.255 446.29 259 443.023 258.747 439.755C258.671 438.809 258.594 437.862 258.516 436.886C258.059 430.912 257.913 424.991 258 419C255.314 421.537 254.241 423.507 253.046 427.03C252.69 428.063 252.335 429.097 251.968 430.162C251.591 431.288 251.213 432.414 250.824 433.574C250.222 435.335 250.222 435.335 249.608 437.131C248.744 439.659 247.884 442.189 247.029 444.721C245.677 448.724 244.312 452.723 242.945 456.721C241.57 460.745 240.195 464.77 238.824 468.795C235.289 479.174 231.698 489.531 228.062 499.875C227.527 501.401 226.991 502.928 226.456 504.455C225.611 506.863 224.765 509.271 223.92 511.68C221.181 519.48 218.449 527.283 215.719 535.086C215.487 535.749 215.254 536.413 215.015 537.096C213.833 540.475 212.65 543.854 211.468 547.233C210.323 550.506 209.177 553.78 208.032 557.053C207.375 558.927 206.719 560.802 206.063 562.677C205.221 565.084 204.378 567.491 203.534 569.898C201.631 575.33 199.733 580.765 197.851 586.205C197.525 587.146 197.198 588.087 196.862 589.057C196.26 590.792 195.661 592.528 195.064 594.265C193.112 599.888 193.112 599.888 192 601C188.897 601.089 185.817 601.115 182.715 601.097C181.784 601.096 180.853 601.095 179.894 601.093C176.909 601.088 173.923 601.075 170.938 601.062C168.919 601.057 166.9 601.053 164.881 601.049C159.921 601.038 154.96 601.02 150 601C149.806 600.437 149.611 599.875 149.411 599.295C139.976 571.992 130.52 544.696 120.957 517.438C118.468 510.34 115.986 503.24 113.504 496.14C112.113 492.16 110.722 488.181 109.331 484.201C108.196 480.956 107.061 477.71 105.928 474.464C103.392 467.205 100.849 459.95 98.2976 452.697C97.1631 449.465 96.0346 446.23 94.9084 442.995C93.9927 440.37 93.0709 437.746 92.1475 435.124C91.4966 433.269 90.8531 431.412 90.2098 429.555C89.818 428.446 89.4261 427.337 89.0225 426.194C88.6792 425.213 88.336 424.231 87.9824 423.219C87.211 420.84 87.211 420.84 85 420C84.9271 421.081 84.8542 422.162 84.7792 423.276C83.0498 448.843 81.1314 474.388 79.0096 499.926C78.2384 509.209 77.4778 518.493 76.7188 527.777C76.644 528.691 76.5692 529.606 76.4921 530.548C74.5196 554.689 72.7456 578.841 71 603C47.57 603 24.14 603 0 603C0.60899 592.647 1.25137 582.357 2.19922 572.039C2.37631 570.074 2.5534 568.109 2.73049 566.144C2.91803 564.069 3.10688 561.994 3.29614 559.919C3.69814 555.512 4.09639 551.105 4.49414 546.697C4.98128 541.301 5.46923 535.906 5.95828 530.51C6.8179 521.026 7.67094 511.54 8.51953 502.055C8.5808 501.37 8.64208 500.685 8.7052 499.979C9.01349 496.533 9.32165 493.086 9.62976 489.64C10.191 483.362 10.7534 477.085 11.3157 470.808C11.6287 467.314 11.9415 463.82 12.2544 460.326C12.3161 459.637 12.3779 458.947 12.4415 458.237C12.8724 453.425 13.3032 448.614 13.7339 443.802C13.7942 443.128 13.8545 442.455 13.9166 441.761C14.2218 438.352 14.527 434.942 14.8321 431.533C15.4443 424.693 16.057 417.854 16.6709 411.015C16.92 408.239 17.169 405.463 17.418 402.687C17.4803 401.992 17.5426 401.298 17.6069 400.582C18.4604 391.063 19.307 381.544 20.1482 372.025C20.7805 364.87 21.4151 357.717 22.0511 350.563C22.511 345.389 22.9676 340.214 23.4219 335.039C23.706 331.811 23.9934 328.584 24.2816 325.356C24.414 323.867 24.5451 322.377 24.6748 320.886C24.8548 318.819 25.0397 316.753 25.2256 314.686C25.3274 313.534 25.4292 312.381 25.5341 311.194C26.2098 305.111 27.1345 299.058 28 293Z" fill="#FF3232"/>
<path d="M483.998 293C643.937 293 643.937 293 675.928 324.926C683.685 333.252 688.602 343.225 691.998 354C692.555 355.671 692.555 355.671 693.123 357.375C699.841 385.207 696.377 414.088 681.748 438.75C670.586 455.306 654.824 467.315 635.998 474C635.008 474 634.018 474 632.998 474C638.638 481.511 644.451 488.805 650.602 495.905C654.391 500.279 658.072 504.73 661.721 509.223C664.28 512.344 666.884 515.425 669.498 518.5C673.619 523.35 677.668 528.252 681.686 533.188C684.26 536.318 686.874 539.412 689.498 542.5C693.619 547.35 697.668 552.252 701.686 557.188C704.26 560.318 706.874 563.412 709.498 566.5C713.535 571.254 717.52 576.045 721.451 580.887C723.503 583.407 725.584 585.902 727.67 588.395C728.311 589.164 728.953 589.934 729.614 590.728C730.898 592.268 732.186 593.805 733.478 595.339C734.063 596.043 734.649 596.747 735.252 597.473C736.046 598.42 736.046 598.42 736.856 599.387C737.998 601 737.998 601 737.998 603C726.585 603.325 715.173 603.574 703.756 603.725C698.453 603.798 693.154 603.897 687.853 604.056C682.73 604.209 677.611 604.292 672.486 604.328C670.538 604.354 668.59 604.404 666.644 604.48C651.811 605.035 651.811 605.035 647.115 601.637C643.803 598.372 641.329 594.69 639.004 590.682C637.605 588.343 635.934 586.262 634.213 584.152C633.12 582.748 632.028 581.343 630.936 579.938C630.346 579.179 629.757 578.421 629.149 577.64C624.077 571.11 619.032 564.559 613.998 558C612.332 555.833 610.665 553.666 608.998 551.5C606.543 548.31 604.089 545.119 601.639 541.926C596.781 535.6 591.898 529.294 586.998 523C581.304 515.687 575.64 508.353 569.998 501C568.207 498.666 566.415 496.333 564.623 494C563.832 492.969 563.04 491.938 562.225 490.875C560.176 488.229 558.089 485.613 555.998 483C555.668 522.6 555.338 562.2 554.998 603C531.568 603 508.138 603 483.998 603C483.998 500.7 483.998 398.4 483.998 293ZM554.998 350C554.998 376.4 554.998 402.8 554.998 430C584.621 431.573 584.621 431.573 610.998 420C618.942 411.034 621.52 402.358 621.436 390.625C621.456 389.648 621.476 388.671 621.496 387.664C621.49 377.804 618.449 368.679 611.506 361.445C596.091 347.167 574.669 350 554.998 350Z" fill="black"/>
<path d="M1002 293C1161.88 293 1161.88 293 1193.94 324.93C1210.3 342.537 1214.96 367.059 1214.29 390.367C1213.15 413.056 1205.21 434.005 1190 451C1189.47 451.623 1188.94 452.245 1188.4 452.887C1179.46 462.716 1166.45 469.768 1154 474C1153.01 474 1152.02 474 1151 474C1154.93 479.194 1159.02 484.237 1163.25 489.188C1167.08 493.664 1170.77 498.218 1174.38 502.875C1178.83 508.62 1183.51 514.131 1188.3 519.601C1192.22 524.078 1196.01 528.635 1199.76 533.258C1202.3 536.37 1204.9 539.437 1207.5 542.5C1211.62 547.349 1215.67 552.252 1219.69 557.188C1222.26 560.318 1224.88 563.412 1227.5 566.5C1231.62 571.343 1235.66 576.236 1239.67 581.168C1241.38 583.25 1243.11 585.313 1244.86 587.363C1245.35 587.937 1245.84 588.511 1246.35 589.102C1247.29 590.207 1248.24 591.31 1249.2 592.41C1252.08 595.784 1254.56 599.291 1257 603C1245.46 603.325 1233.91 603.574 1222.37 603.725C1217 603.798 1211.64 603.897 1206.28 604.056C1201.1 604.209 1195.92 604.292 1190.74 604.328C1188.77 604.354 1186.8 604.404 1184.83 604.48C1169.85 605.035 1169.85 605.035 1165.12 601.66C1161.83 598.431 1159.39 594.777 1157.09 590.799C1155.35 587.928 1153.27 585.375 1151.19 582.75C1150.36 581.677 1149.54 580.604 1148.72 579.531C1145.56 575.422 1142.37 571.337 1139.19 567.25C1134.06 560.663 1128.97 554.044 1123.9 547.404C1119.31 541.394 1114.68 535.424 1110.03 529.46C1104.58 522.469 1099.18 515.447 1093.78 508.413C1087.25 499.891 1080.63 491.444 1074 483C1073.67 522.6 1073.34 562.2 1073 603C1049.57 603 1026.14 603 1002 603C1002 500.7 1002 398.4 1002 293ZM1073 350C1073 376.73 1073 403.46 1073 431C1104.08 431.892 1104.08 431.892 1131 418C1137.87 409.542 1139.51 400.128 1139.44 389.5C1139.46 388.519 1139.48 387.538 1139.5 386.527C1139.49 376.907 1136.25 368.485 1129.51 361.441C1114.07 347.177 1092.71 350 1073 350Z" fill="black"/>
<path d="M752.996 294C918.935 294 918.935 294 950.926 325.925C966.01 342.116 971.622 364.714 971.371 386.312C971.362 387.578 971.352 388.844 971.343 390.148C970.923 416.267 963.24 440.301 944.762 459.296C932.398 471.013 917.382 479.085 901.059 483.75C900.368 483.948 899.677 484.147 898.966 484.352C874.163 491.006 848.444 488 822.996 488C822.996 525.95 822.996 563.9 822.996 603C799.896 603 776.796 603 752.996 603C752.996 501.03 752.996 399.06 752.996 294ZM822.996 350C822.996 377.06 822.996 404.12 822.996 432C857.748 432.882 857.748 432.882 888.434 417.726C897.204 407.018 897.961 394.388 896.996 381C894.754 371.925 889.698 364.302 881.996 359C862.805 348.251 845.307 350 822.996 350Z" fill="black"/>
<path d="M1271 294C1329.08 294 1387.16 294 1447 294C1447 314.13 1447 334.26 1447 355C1412.02 355 1377.04 355 1341 355C1341 375.46 1341 395.92 1341 417C1374.66 417 1408.32 417 1443 417C1443 437.13 1443 457.26 1443 478C1409.34 478 1375.68 478 1341 478C1341 498.79 1341 519.58 1341 541C1376.31 541 1411.62 541 1448 541C1448 561.46 1448 581.92 1448 603C1389.59 603 1331.18 603 1271 603C1271 501.03 1271 399.06 1271 294Z" fill="black"/>
<path d="M370.998 410C436.998 410 436.998 410 437.998 411C438.096 413.478 438.128 415.929 438.118 418.409C438.119 419.194 438.12 419.979 438.121 420.787C438.123 423.438 438.117 426.088 438.112 428.738C438.111 430.63 438.111 432.522 438.112 434.413C438.112 439.566 438.106 444.719 438.099 449.871C438.093 455.25 438.093 460.628 438.091 466.007C438.088 476.2 438.08 486.392 438.07 496.585C438.059 508.186 438.053 519.787 438.048 531.387C438.038 555.258 438.02 579.129 437.998 603C415.888 603 393.778 603 370.998 603C370.998 539.31 370.998 475.62 370.998 410Z" fill="#FF3333"/>
<path d="M426.203 297.32C434.533 303.127 441.399 311.06 444.004 320.999C445.642 333.328 444.507 344.572 436.949 354.773C429.125 364.006 420.57 369.142 408.453 370.355C396.515 370.806 387.148 367.614 377.969 359.945C374.65 356.658 372.274 353.063 370.004 348.999C369.59 348.312 369.177 347.625 368.75 346.917C364.229 338.427 364.961 327.604 367.129 318.433C371.056 307.511 379.178 299.056 389.504 293.999C401.546 289.463 415.217 290.724 426.203 297.32Z" fill="#FF3232"/>
<path d="M1446.5 227.999C1452.54 231.555 1458.11 237.135 1460.57 243.828C1462.34 252.613 1461.94 261.396 1457 268.999C1452.59 275.545 1447.78 279.296 1440 280.999C1430.97 282.089 1423.49 281.428 1416 275.999C1409.75 270.785 1406.8 263.36 1405.62 255.421C1405.25 247.516 1407.85 240.456 1412.63 234.187C1421.43 224.975 1434.87 222.785 1446.5 227.999ZM1416.25 237.812C1411.42 244.658 1409.81 250.722 1411 258.999C1413.21 265.82 1416.89 271.167 1423 274.999C1429.1 277.872 1435.27 278.101 1441.73 276.195C1448.22 273.352 1451.92 269.351 1455 262.999C1457.22 256.204 1456.82 248.244 1453.99 241.714C1451.15 236.773 1446.37 232.789 1441 230.999C1430.66 230.259 1423.8 230.094 1416.25 237.812Z" fill="black"/>
<path d="M1423 238C1438 238 1438 238 1444 241C1446.33 244.489 1446.33 245.902 1446 250C1445.31 252.25 1445.31 252.25 1444 254C1442.35 254.709 1440.68 255.38 1439 256C1439.76 257.048 1439.76 257.048 1440.53 258.118C1441.51 259.483 1441.51 259.483 1442.5 260.875C1443.15 261.78 1443.8 262.685 1444.47 263.618C1446 266 1446 266 1446 268C1442.94 268.688 1442.94 268.688 1439 268C1436.86 265.303 1435.23 262.526 1433.58 259.504C1432.19 256.711 1432.19 256.711 1429 256C1429 259.96 1429 263.92 1429 268C1427.02 268 1425.04 268 1423 268C1423 258.1 1423 248.2 1423 238ZM1429 244C1429 246.31 1429 248.62 1429 251C1432.3 251 1435.6 251 1439 251C1439.68 248.603 1439.68 248.603 1440 246C1438.21 243.787 1438.21 243.787 1435.84 243.805C1435.02 243.828 1434.21 243.852 1433.38 243.875C1432.15 243.903 1432.15 243.903 1430.9 243.93C1429.96 243.965 1429.96 243.965 1429 244Z" fill="black"/>
<path d="M1722.7 7.05025C1725.93 7.05341 1729.16 7.02988 1732.38 7.0046C1743.94 6.96903 1754.75 7.03018 1765.63 11.4272C1768.4 12.5205 1771.07 12.9559 1774 13.3659C1774 14.0259 1774 14.6859 1774 15.3659C1774.57 15.5477 1775.14 15.7294 1775.73 15.9167C1780.61 17.5068 1785.31 19.2705 1790 21.3659C1790 22.0259 1790 22.6859 1790 23.3659C1790.95 23.5309 1791.9 23.6959 1792.88 23.8659C1798.56 25.5034 1802.66 29.5156 1807 33.3659C1808.24 34.4603 1808.24 34.4603 1809.5 35.5769C1816.47 42.1081 1820.63 49.0461 1821.12 58.7136C1821.24 63.3854 1821.24 67.1465 1819 71.3659C1818.63 72.129 1818.26 72.8922 1817.88 73.6784C1817.59 74.2353 1817.3 74.7922 1817 75.3659C1815.68 75.3659 1814.36 75.3659 1813 75.3659C1813 76.0259 1813 76.6859 1813 77.3659C1803.12 81.8825 1793.4 79.3062 1783.71 75.7526C1781 74.3659 1781 74.3659 1780 71.3659C1778.36 70.6457 1776.69 69.9876 1775 69.3659C1773.25 68.2977 1771.52 67.1909 1769.82 66.0534C1749.16 52.829 1725.33 47.1257 1700.89 52.3034C1698.22 52.9516 1696.07 53.7659 1693.5 54.8659C1690.02 56.3596 1686.82 57.1474 1683.12 57.8386C1680.95 58.2956 1680.95 58.2956 1678.92 59.4245C1677 60.3659 1677 60.3659 1674 60.3659C1674 61.0259 1674 61.6859 1674 62.3659C1672.91 62.8197 1671.82 63.2734 1670.69 63.7409C1661.52 68.3584 1653.94 75.8793 1650 85.3659C1649.63 86.2347 1649.25 87.1036 1648.86 87.9987C1645.3 97.2227 1645.63 103.726 1645 114.366C1687.57 114.366 1730.14 114.366 1774 114.366C1773.75 152.741 1773.75 152.741 1773.58 164.805C1773.59 168.411 1773.59 168.411 1773.61 172.016C1773.61 173.608 1773.59 175.199 1773.55 176.79C1773.07 185.863 1773.07 185.863 1776.23 194.075C1779.44 197.411 1783.14 199.837 1787 202.366C1787.33 203.026 1787.66 203.686 1788 204.366C1790.88 204.616 1790.88 204.616 1794 204.366C1795.02 203.382 1796.02 202.379 1797 201.366C1798.73 200.338 1800.48 199.363 1802.25 198.428C1803.24 197.902 1804.23 197.377 1805.24 196.835C1806.15 196.35 1807.06 195.865 1808 195.366C1811.18 193.578 1814.33 191.764 1817.46 189.917C1822.88 186.736 1828.32 183.632 1833.82 180.609C1840.14 177.135 1846.38 173.695 1852.28 169.522C1855.99 167.038 1858.5 166.116 1863 166.366C1863.33 167.686 1863.66 169.006 1864 170.366C1864.66 170.366 1865.32 170.366 1866 170.366C1866.4 171.102 1866.8 171.838 1867.21 172.596C1867.74 173.572 1868.27 174.548 1868.82 175.553C1869.34 176.516 1869.86 177.479 1870.4 178.471C1871.38 180.243 1872.39 182.004 1873.43 183.741C1875.49 187.177 1877.43 190.679 1879.38 194.178C1882.82 200.345 1882.82 200.345 1886.5 206.366C1889.42 210.906 1891.99 215.64 1894.62 220.353C1897.29 225.135 1900.07 229.824 1903.01 234.448C1904 236.366 1904 236.366 1904 239.366C1904.66 239.366 1905.32 239.366 1906 239.366C1906.31 239.94 1906.61 240.513 1906.93 241.104C1909.49 245.853 1912.1 250.548 1914.85 255.186C1915.35 256.029 1915.85 256.872 1916.36 257.74C1917.36 259.436 1918.38 261.127 1919.4 262.814C1919.86 263.604 1920.33 264.393 1920.81 265.206C1921.23 265.911 1921.65 266.616 1922.09 267.342C1923 269.366 1923 269.366 1923 273.366C1921.68 273.929 1921.68 273.929 1920.34 274.503C1919.17 275.014 1918.01 275.526 1916.82 276.053C1915.67 276.552 1914.52 277.051 1913.34 277.565C1909.87 279.439 1907.71 281.533 1905 284.366C1902.71 285.449 1900.37 286.444 1898 287.366C1893.07 289.637 1888.47 292.274 1883.89 295.194C1877.16 299.366 1877.16 299.366 1874 299.366C1873.67 300.356 1873.34 301.346 1873 302.366C1871.37 303.428 1871.37 303.428 1869.32 304.366C1868.6 304.702 1867.88 305.039 1867.13 305.385C1866.43 305.709 1865.73 306.033 1865 306.366C1863.4 307.201 1863.4 307.201 1861.75 308.053C1859.46 309.149 1857.49 309.888 1855 310.366C1855 311.026 1855 311.686 1855 312.366C1849.39 315.336 1843.78 318.306 1838 321.366C1838 322.356 1838 323.346 1838 324.366C1840.97 325.356 1843.94 326.346 1847 327.366C1847 328.026 1847 328.686 1847 329.366C1847.99 329.696 1848.98 330.026 1850 330.366C1850 331.026 1850 331.686 1850 332.366C1850.86 332.634 1851.72 332.902 1852.61 333.178C1855.99 334.363 1859.11 335.768 1862.32 337.366C1863.36 337.882 1864.41 338.397 1865.49 338.928C1868 340.366 1868 340.366 1869 342.366C1871.53 343.021 1871.53 343.021 1874 343.366C1874 344.026 1874 344.686 1874 345.366C1874.65 345.593 1875.3 345.82 1875.97 346.053C1880.83 348.156 1885.24 350.999 1889.77 353.733C1893.46 355.943 1897 357.767 1901 359.366C1903.31 360.768 1905.57 362.192 1907.82 363.678C1909.05 364.486 1910.29 365.293 1911.53 366.1C1912.13 366.489 1912.72 366.878 1913.33 367.278C1916.53 369.356 1919.77 371.358 1923 373.366C1921.61 377.05 1919.96 380.471 1918.07 383.928C1917.56 384.858 1917.06 385.787 1916.54 386.745C1915 389.366 1915 389.366 1913.41 391.46C1911.98 393.397 1911.26 395.033 1910.5 397.303C1909.33 400.59 1908.06 403.51 1906 406.366C1905.34 406.366 1904.68 406.366 1904 406.366C1903.71 406.946 1903.42 407.526 1903.12 408.124C1900.07 414.241 1900.07 414.241 1899 416.362C1898.19 417.998 1897.4 419.649 1896.63 421.303C1894.8 424.749 1892.68 427.897 1890.5 431.124C1886.79 436.513 1886.79 436.513 1884.5 442.553C1884 444.366 1884 444.366 1882.13 446.178C1879.92 448.451 1879.05 450.467 1877.91 453.385C1876.85 455.697 1875.52 457.654 1874.07 459.741C1871.08 464.07 1869 468.52 1867 473.366C1866.67 474.026 1866.34 474.686 1866 475.366C1865.34 475.366 1864.68 475.366 1864 475.366C1863.34 476.686 1862.68 478.006 1862 479.366C1857.52 478.853 1855.46 477.163 1852 474.366C1850.3 473.627 1848.6 472.891 1846.88 472.202C1844.16 470.988 1841.75 469.374 1839.25 467.768C1831.03 462.641 1831.03 462.641 1822 459.366C1820.67 458.033 1819.34 456.699 1818 455.366C1816.04 454.306 1814.04 453.291 1812 452.366C1812 451.706 1812 451.046 1812 450.366C1811.18 450.121 1810.35 449.876 1809.5 449.624C1805.47 448.174 1801.87 446.294 1798.13 444.241C1797.44 443.868 1796.75 443.496 1796.04 443.112C1794.36 442.201 1792.68 441.284 1791 440.366C1791 439.706 1791 439.046 1791 438.366C1790.16 438.118 1789.31 437.871 1788.44 437.616C1778.89 434.144 1778.89 434.144 1777 430.366C1774.48 429.71 1774.48 429.71 1772 429.366C1771.85 434.614 1771.77 439.856 1771.77 445.107C1771.76 446.889 1771.73 448.671 1771.67 450.452C1771.09 461.173 1771.09 461.173 1775.58 470.421C1778.69 472.809 1778.69 472.809 1781.93 474.597C1785.21 476.484 1787.43 478.623 1790 481.366C1791.86 482.925 1793.75 484.435 1795.65 485.936C1797 487.366 1797 487.366 1797 490.366C1797.6 490.61 1798.2 490.853 1798.82 491.104C1805 494.673 1807.45 503.027 1809.38 509.491C1813.22 525.621 1811.45 540.907 1802.75 555.178C1801.54 556.93 1800.28 558.659 1799 560.366C1798.32 561.29 1797.64 562.214 1796.94 563.167C1789.2 573.159 1779.7 581.33 1768 586.366C1767.01 586.366 1766.02 586.366 1765 586.366C1764.67 587.356 1764.34 588.346 1764 589.366C1761.24 590.795 1758.17 591.503 1755.19 592.366C1754.41 592.613 1753.63 592.861 1752.82 593.116C1737.22 597.75 1721.19 598.851 1705 598.702C1702.24 598.678 1699.48 598.682 1696.72 598.688C1683.55 598.668 1670.7 598.168 1658 594.366C1656.34 594.032 1654.67 593.717 1653 593.428C1648.65 592.596 1645 591.275 1641 589.366C1641 589.036 1641 588.706 1641 588.366C1652.55 588.036 1664.1 587.706 1676 587.366C1676 586.706 1676 586.046 1676 585.366C1678.84 584.419 1681.01 584.136 1683.98 583.936C1685.45 583.826 1685.45 583.826 1686.96 583.714C1689 583.567 1691.05 583.426 1693.1 583.292C1698.97 582.841 1704.21 581.898 1709.81 580.066C1712.56 579.19 1715.29 578.677 1718.13 578.241C1719.13 578.086 1720.12 577.932 1721.15 577.772C1724.77 577.257 1728.38 576.784 1732 576.366C1732 575.706 1732 575.046 1732 574.366C1732.77 574.1 1733.55 573.835 1734.34 573.561C1735.34 573.208 1736.35 572.855 1737.38 572.491C1738.38 572.143 1739.37 571.795 1740.4 571.436C1743.11 570.518 1743.11 570.518 1745 568.366C1746.14 567.995 1747.27 567.623 1748.44 567.241C1753.53 565.458 1757.45 562.281 1761.68 559.01C1764 557.366 1764 557.366 1766 557.366C1766 556.706 1766 556.046 1766 555.366C1767.65 553.677 1769.32 552.013 1771 550.366C1778.03 542.31 1779.36 534.713 1779.3 524.288C1778.87 520.031 1777.57 517.759 1775 514.366C1774.34 514.036 1773.68 513.706 1773 513.366C1773.02 514.582 1773.03 515.797 1773.04 517.05C1773.05 518.634 1773.06 520.219 1773.07 521.803C1773.07 522.606 1773.08 523.408 1773.09 524.235C1773.1 526.279 1773.06 528.323 1773 530.366C1772 531.366 1772 531.366 1769.99 531.489C1768.65 531.488 1768.65 531.488 1767.29 531.486C1766.27 531.488 1765.25 531.489 1764.2 531.49C1763.07 531.487 1761.94 531.483 1760.78 531.479C1759.6 531.48 1758.42 531.48 1757.21 531.48C1753.96 531.479 1750.71 531.474 1747.47 531.467C1744.08 531.461 1740.69 531.46 1737.3 531.459C1730.88 531.456 1724.46 531.448 1718.04 531.438C1710.73 531.427 1703.42 531.421 1696.12 531.416C1681.08 531.406 1666.04 531.388 1651 531.366C1651.01 530.3 1651.01 529.233 1651.02 528.135C1651.06 518.085 1651.07 508.036 1651.03 497.986C1651.01 492.819 1651 487.653 1651.03 482.486C1651.06 477.5 1651.05 472.515 1651.02 467.528C1651.01 465.626 1651.01 463.724 1651.03 461.821C1651.06 459.155 1651.04 456.494 1651 453.828C1651.02 453.042 1651.04 452.256 1651.06 451.446C1651.08 448.924 1651.08 448.924 1650 445.366C1648.08 443.675 1646.19 442.525 1643.91 441.358C1642 440.366 1642 440.366 1640 438.366C1635.65 437.762 1633.47 439.033 1629.94 441.491C1625.98 444.142 1622.05 446.422 1617.75 448.491C1613.74 450.438 1610.21 452.505 1606.66 455.198C1603.34 457.536 1599.15 460.366 1595 460.366C1594.67 461.356 1594.34 462.346 1594 463.366C1592.68 463.366 1591.36 463.366 1590 463.366C1590 464.026 1590 464.686 1590 465.366C1588.91 465.909 1587.81 466.451 1586.68 467.01C1585.23 467.733 1583.77 468.456 1582.32 469.178C1581.6 469.535 1580.87 469.891 1580.13 470.259C1572.65 473.677 1572.65 473.677 1567 479.366C1564.38 479.553 1564.38 479.553 1562 479.366C1558 472.616 1558 472.616 1558 470.366C1557.01 470.036 1556.02 469.706 1555 469.366C1554.05 467.616 1554.05 467.616 1553.19 465.366C1551.73 461.802 1550.05 458.819 1547.82 455.678C1545.43 452.253 1544.22 449.63 1544 445.366C1543.01 445.036 1542.02 444.706 1541 444.366C1539.76 442.257 1539.76 442.257 1538.57 439.616C1536.73 435.729 1534.71 432.707 1532 429.366C1531.28 427.671 1530.56 425.974 1529.85 424.272C1528.5 421.217 1526.81 418.375 1525.13 415.491C1524.42 414.267 1523.72 413.043 1523.01 411.819C1521.8 409.743 1520.59 407.669 1519.37 405.6C1518.92 404.822 1518.47 404.043 1518 403.241C1517.61 402.578 1517.22 401.916 1516.82 401.233C1516 399.366 1516 399.366 1516 395.366C1515.01 395.036 1514.02 394.706 1513 394.366C1511.4 392.151 1511.4 392.151 1509.82 389.428C1509.29 388.533 1508.76 387.637 1508.21 386.714C1507 384.366 1507 384.366 1507 382.366C1506.34 382.366 1505.68 382.366 1505 382.366C1501.68 377.288 1501.68 377.288 1501 375.366C1502.1 371.499 1504.52 370.088 1507.88 368.116C1508.74 367.595 1509.61 367.074 1510.5 366.538C1513 365.366 1513 365.366 1517 365.366C1517.33 364.376 1517.66 363.386 1518 362.366C1520.36 360.96 1522.68 359.707 1525.13 358.491C1526.52 357.78 1527.9 357.065 1529.29 356.346C1529.91 356.028 1530.54 355.71 1531.18 355.382C1533.65 354.008 1535.84 352.36 1538.07 350.643C1541.46 348.401 1545.17 346.733 1548.81 344.954C1554.16 342.328 1559.12 339.391 1563.99 335.971C1570.65 331.359 1577.72 327.867 1585 324.366C1584.86 322.459 1584.86 322.459 1584 320.366C1581.88 318.642 1581.88 318.642 1579.25 317.241C1578.39 316.743 1577.53 316.246 1576.64 315.733C1574.14 314.437 1571.64 313.361 1569 312.366C1569 311.706 1569 311.046 1569 310.366C1567.68 310.036 1566.36 309.706 1565 309.366C1565 308.706 1565 308.046 1565 307.366C1564.19 307.299 1563.37 307.232 1562.52 307.163C1557.97 306.132 1554.63 304.053 1550.69 301.616C1549.17 300.699 1547.66 299.782 1546.14 298.866C1545.42 298.429 1544.7 297.992 1543.96 297.542C1541.69 296.177 1539.39 294.882 1537.07 293.616C1534 291.937 1531 290.175 1528 288.366C1522.61 285.107 1517.12 282.058 1511.58 279.05C1510.4 278.402 1510.4 278.402 1509.19 277.741C1508.48 277.357 1507.78 276.973 1507.05 276.577C1504.91 275.309 1502.97 273.891 1501 272.366C1502.36 267.715 1504.28 264.009 1506.88 259.928C1507.6 258.775 1508.33 257.622 1509.05 256.467C1509.7 255.444 1510.34 254.42 1511 253.366C1512.37 251.051 1513.68 248.709 1515 246.366C1516.13 244.449 1517.25 242.532 1518.38 240.616C1522.45 233.643 1526.43 226.611 1530 219.366C1530.66 219.366 1531.32 219.366 1532 219.366C1532.1 218.647 1532.2 217.927 1532.3 217.186C1533.1 213.986 1534.35 211.967 1536.19 209.241C1539.79 203.775 1542.95 198.15 1546 192.366C1546.66 192.366 1547.32 192.366 1548 192.366C1548.12 191.63 1548.24 190.894 1548.37 190.136C1549 187.402 1549.84 185.475 1551.22 183.046C1551.66 182.263 1552.1 181.481 1552.55 180.675C1553.01 179.871 1553.47 179.068 1553.94 178.241C1554.4 177.43 1554.85 176.619 1555.32 175.784C1557.14 172.572 1558.96 169.437 1561 166.366C1564.57 165.633 1566.05 166.394 1569.24 168.194C1570.42 168.992 1571.59 169.8 1572.75 170.616C1577.37 173.733 1581.79 176.452 1587.04 178.417C1589 179.366 1589 179.366 1591.41 181.303C1594.01 183.374 1596.43 184.663 1599.44 186.053C1605.52 189.005 1611.06 192.504 1616.69 196.198C1623.98 200.971 1631.36 205.148 1639.24 208.874C1642 210.366 1642 210.366 1644.61 212.483C1646.95 214.32 1648.18 214.783 1651 215.366C1651.03 210.329 1651.02 205.296 1650.96 200.26C1650.95 198.548 1650.95 196.836 1650.96 195.124C1650.97 192.658 1650.94 190.195 1650.91 187.729C1650.93 186.587 1650.93 186.587 1650.95 185.421C1650.87 182.311 1650.69 180.024 1648.39 177.806C1646.48 176.451 1646.48 176.451 1644.5 175.361C1644.01 175.033 1643.51 174.704 1643 174.366C1643 173.706 1643 173.046 1643 172.366C1642.46 172.144 1641.91 171.922 1641.34 171.694C1638.28 169.955 1636 167.617 1633.57 165.116C1632.64 164.183 1631.71 163.249 1630.76 162.288C1616.5 147.351 1609.57 128.939 1609 108.366C1608.98 107.358 1608.95 106.35 1608.92 105.311C1608.73 90.9499 1609.89 77.0865 1617 64.3659C1617.6 63.14 1617.6 63.14 1618.21 61.8894C1628.91 40.5359 1649.1 25.0141 1671 16.3659C1671.97 15.8297 1672.94 15.2934 1673.94 14.7409C1677.24 13.2579 1679.43 13.1105 1683 13.3659C1683 12.7059 1683 12.0459 1683 11.3659C1696.15 7.18406 1709.02 7.02221 1722.7 7.05025ZM1787 37.3659C1787.19 41.1916 1787.19 41.1916 1789 44.3659C1791.96 44.6993 1791.96 44.6993 1795 44.3659C1797.37 41.5177 1797.37 41.5177 1796.63 38.1784C1796.42 37.2503 1796.22 36.3222 1796 35.3659C1790.98 34.863 1790.98 34.863 1787 37.3659ZM1683 147.366C1683 187.956 1683 228.546 1683 270.366C1677.22 267.889 1671.74 265.421 1666.38 262.178C1663.06 260.051 1663.06 260.051 1659 260.366C1658.67 259.376 1658.34 258.386 1658 257.366C1655.93 255.819 1655.93 255.819 1653.38 254.428C1652.46 253.902 1651.55 253.377 1650.61 252.835C1649.75 252.35 1648.89 251.865 1648 251.366C1646.36 250.407 1646.36 250.407 1644.69 249.428C1640.18 246.862 1635.58 244.47 1630.99 242.05C1628 240.366 1628 240.366 1625.73 238.651C1624.1 237.167 1624.1 237.167 1622 237.366C1622 236.706 1622 236.046 1622 235.366C1620.3 234.809 1620.3 234.809 1618.57 234.241C1614.22 232.64 1610.71 230.286 1606.98 227.573C1604.96 226.106 1604.96 226.106 1602 226.366C1602 225.706 1602 225.046 1602 224.366C1600.91 223.83 1599.82 223.293 1598.69 222.741C1594.15 220.484 1589.74 218.022 1585.32 215.538C1583.14 214.216 1583.14 214.216 1581 214.366C1580.34 212.716 1579.68 211.066 1579 209.366C1576.72 208.778 1576.72 208.778 1574 209.366C1569.37 214.445 1567.64 219.766 1566 226.366C1565.34 226.366 1564.68 226.366 1564 226.366C1560.67 232.095 1560.67 232.095 1557.94 238.116C1557 240.366 1557 240.366 1555.19 242.616C1550.6 248.388 1547.48 253.947 1547 261.366C1551.8 264.707 1556.78 267.317 1562.06 269.809C1565.23 271.347 1567.58 272.834 1570 275.366C1573.11 276.093 1573.11 276.093 1576 276.366C1576 277.026 1576 277.686 1576 278.366C1576.96 278.521 1576.96 278.521 1577.94 278.678C1578.96 279.019 1578.96 279.019 1580 279.366C1580.33 280.356 1580.66 281.346 1581 282.366C1586.89 286.014 1593.25 288.831 1600 290.366C1600 291.026 1600 291.686 1600 292.366C1604.89 295.697 1610.12 298.572 1615.57 300.866C1619.69 302.667 1623.26 305.011 1627.03 307.464C1630.06 309.405 1633.14 311.242 1636.25 313.053C1637.25 313.631 1638.24 314.208 1639.26 314.803C1640.92 315.747 1642.59 316.671 1644.28 317.553C1648.74 319.89 1648.74 319.89 1650.13 322.428C1650 324.366 1650 324.366 1648.83 325.866C1646.55 327.737 1644.43 328.408 1641.63 329.303C1637.37 330.773 1634.33 332.245 1631 335.366C1627.85 338.008 1624.95 339.201 1621 340.366C1621 341.026 1621 341.686 1621 342.366C1620.32 342.613 1619.64 342.861 1618.94 343.116C1616.09 344.33 1613.49 345.795 1610.82 347.366C1609 348.366 1609 348.366 1605.5 349.803C1602.79 351.015 1601 352.007 1598.69 353.741C1595.16 356.392 1591.39 358.199 1587.42 360.108C1584.6 361.578 1582.17 363.348 1579.63 365.257C1577.57 366.665 1575.34 367.511 1573.02 368.421C1570.35 369.672 1567.97 371.255 1565.5 372.866C1561.43 375.526 1557.55 377.648 1553 379.366C1553 380.026 1553 380.686 1553 381.366C1551 382.366 1549 383.366 1547 384.366C1547.54 389.714 1549.47 393.724 1552 398.366C1552.66 398.366 1553.32 398.366 1554 398.366C1554.29 399.096 1554.57 399.825 1554.87 400.577C1557.96 408.165 1561.97 415.032 1566.43 421.889C1568.17 424.627 1569.61 427.44 1571 430.366C1571.99 432.042 1572.98 433.712 1574 435.366C1578.96 434.915 1580.59 433.826 1584 430.366C1586.24 428.979 1586.24 428.979 1588.75 427.678C1593.6 425.114 1598.41 422.491 1603.19 419.803C1604.23 419.223 1604.23 419.223 1605.28 418.631C1608.85 416.62 1612.36 414.564 1615.82 412.366C1619 410.366 1619 410.366 1622 409.366C1622.01 408.616 1622.01 407.866 1622.02 407.094C1622.27 381.075 1622.27 381.075 1626.95 371.651C1628.28 369.181 1628.28 369.181 1628 365.366C1628.66 365.366 1629.32 365.366 1630 365.366C1630.4 364.335 1630.79 363.303 1631.19 362.241C1632.37 359.453 1633.71 357.336 1635.69 355.053C1638.22 352.704 1638.22 352.704 1638 350.366C1638.66 350.366 1639.32 350.366 1640 350.366C1641.51 348.84 1641.51 348.84 1643 346.928C1645.8 343.468 1645.8 343.468 1648 342.366C1648 341.706 1648 341.046 1648 340.366C1648.71 340.124 1649.41 339.881 1650.13 339.632C1653.46 338.166 1656.07 336.27 1659 334.116C1665.32 329.582 1671.82 326.365 1679 323.366C1679 322.706 1679 322.046 1679 321.366C1680.32 321.366 1681.64 321.366 1683 321.366C1683 320.706 1683 320.046 1683 319.366C1683.56 319.196 1684.12 319.026 1684.69 318.85C1689.37 317.364 1693.66 315.625 1698.01 313.35C1701.25 311.753 1704.61 310.58 1708 309.366C1708 308.706 1708 308.046 1708 307.366C1708.79 307.16 1709.57 306.953 1710.38 306.741C1714.43 305.206 1717.81 303.155 1721.48 300.882C1724.28 299.2 1727.14 297.775 1730.12 296.421C1732.65 295.003 1734.76 293.213 1737 291.366C1738.24 290.393 1738.24 290.393 1739.5 289.401C1748.31 282.454 1757.73 274.461 1763 264.366C1763 263.376 1763 262.386 1763 261.366C1757.17 261.614 1753.89 263.457 1749.21 266.893C1747 268.366 1747 268.366 1742 270.366C1742 229.776 1742 189.186 1742 147.366C1722.53 147.366 1703.06 147.366 1683 147.366ZM1842.82 212.866C1841.92 213.33 1841.01 213.794 1840.09 214.272C1839.4 214.633 1838.71 214.994 1838 215.366C1838 216.026 1838 216.686 1838 217.366C1837.32 217.448 1836.64 217.531 1835.94 217.616C1832.13 218.589 1829.36 220.324 1826 222.366C1826 223.026 1826 223.686 1826 224.366C1825.18 224.613 1824.35 224.861 1823.5 225.116C1820.27 226.272 1817.31 227.513 1814.3 229.151C1812 230.366 1812 230.366 1809.12 231.55C1805.73 233.183 1803.52 234.554 1801 237.366C1799.56 241.623 1799.54 246.108 1799.32 250.561C1799.1 255.285 1798.17 259.624 1796.94 264.178C1795.85 268.232 1794.77 272.236 1794 276.366C1793.34 276.366 1792.68 276.366 1792 276.366C1791.43 277.542 1790.85 278.717 1790.25 279.928C1789.5 281.408 1788.75 282.887 1788 284.366C1787.45 285.48 1786.89 286.593 1786.32 287.741C1783.89 291.964 1780.53 295.389 1777.22 298.936C1774.97 301.34 1774.97 301.34 1772.97 303.948C1771.13 306.209 1769.28 308.041 1767.07 309.928C1766.03 310.818 1766.03 310.818 1764.98 311.725C1763.35 313.079 1761.68 314.386 1760 315.678C1759.34 316.235 1758.68 316.792 1758 317.366C1758 318.026 1758 318.686 1758 319.366C1757.3 319.593 1756.6 319.82 1755.88 320.053C1753.02 321.359 1751.04 322.99 1748.66 325.013C1745.98 327.202 1743.11 329.067 1740.19 330.928C1739.58 331.32 1738.97 331.713 1738.34 332.116C1733.73 335.015 1729.08 337.389 1724 339.366C1720.29 340.929 1716.65 342.526 1713.07 344.366C1709.14 346.362 1705.15 347.886 1701 349.366C1701 350.026 1701 350.686 1701 351.366C1700.17 351.621 1699.33 351.876 1698.46 352.139C1694.67 353.484 1691.2 355.156 1687.63 356.991C1686.99 357.316 1686.35 357.641 1685.69 357.975C1684.12 358.769 1682.56 359.567 1681 360.366C1681 361.026 1681 361.686 1681 362.366C1680.42 362.641 1679.84 362.915 1679.24 363.198C1673.04 366.434 1663.61 372.463 1661.35 379.366C1661 381.482 1661 381.482 1661 384.366C1665.66 383.8 1669.18 381.742 1673.13 379.366C1679.67 375.478 1679.67 375.478 1683 374.366C1683 415.616 1683 456.866 1683 499.366C1715.93 505.938 1715.93 505.938 1743 498.366C1743.11 496.87 1743.15 495.369 1743.16 493.869C1743.16 492.897 1743.17 491.926 1743.18 490.924C1743.18 489.85 1743.19 488.775 1743.19 487.667C1743.2 486.542 1743.21 485.417 1743.22 484.258C1743.24 481.805 1743.25 479.352 1743.26 476.9C1743.29 473.021 1743.31 469.143 1743.34 465.265C1743.4 457.028 1743.45 448.791 1743.5 440.553C1743.56 431.022 1743.63 421.491 1743.7 411.96C1743.72 408.133 1743.74 404.306 1743.76 400.48C1743.78 398.137 1743.8 395.795 1743.81 393.453C1743.82 392.384 1743.82 391.315 1743.83 390.214C1743.84 389.234 1743.84 388.254 1743.85 387.244C1743.86 386.394 1743.86 385.543 1743.87 384.667C1744 382.442 1744.39 380.502 1745 378.366C1754.72 380.081 1754.72 380.081 1757.38 382.741C1759.38 384.738 1761.52 386.04 1763.94 387.491C1764.8 388.009 1765.65 388.527 1766.53 389.061C1768.75 390.232 1770.59 390.798 1773 391.366C1773.5 391.882 1773.99 392.397 1774.5 392.928C1776.14 394.827 1776.14 394.827 1780 394.366C1780 395.026 1780 395.686 1780 396.366C1781.08 396.82 1782.15 397.273 1783.25 397.741C1784.5 398.282 1785.75 398.823 1787 399.366C1787.77 399.696 1788.53 400.026 1789.32 400.366C1791 401.366 1791 401.366 1793 404.366C1795.27 405.574 1795.27 405.574 1797.94 406.616C1803.09 408.849 1807.61 411.582 1812.3 414.659C1817.9 418.194 1823.84 420.959 1830 423.366C1830 424.026 1830 424.686 1830 425.366C1830.62 425.62 1831.23 425.874 1831.87 426.135C1832.68 426.48 1833.48 426.824 1834.32 427.178C1835.12 427.515 1835.92 427.851 1836.74 428.198C1839 429.364 1840.28 430.53 1842 432.366C1845.65 434.795 1847.72 434.528 1852 434.366C1852.66 432.056 1853.32 429.746 1854 427.366C1854.66 427.366 1855.32 427.366 1856 427.366C1856.36 426.627 1856.71 425.889 1857.07 425.128C1860.13 418.846 1863.45 412.948 1867.27 407.104C1869.58 403.456 1871.62 399.686 1873.64 395.874C1875 393.366 1875 393.366 1876.68 390.796C1878.32 388.242 1878.32 388.242 1878 384.366C1876.99 383.797 1875.97 383.229 1874.93 382.643C1867.57 378.523 1860.25 374.366 1852.98 370.104C1845.31 365.624 1837.58 361.245 1829.83 356.904C1823.15 353.164 1816.54 349.348 1810 345.366C1807.52 343.87 1805.02 342.378 1802.53 340.889C1800.77 339.825 1799.01 338.745 1797.26 337.655C1795.93 336.831 1795.93 336.831 1794.57 335.991C1793.76 335.488 1792.96 334.985 1792.13 334.467C1789.96 333.136 1789.96 333.136 1787 333.366C1786.67 332.376 1786.34 331.386 1786 330.366C1784.36 329.641 1782.69 328.988 1781 328.366C1779.76 327.676 1778.54 326.966 1777.32 326.241C1774.35 324.202 1774.35 324.202 1772 324.366C1772 323.376 1772 322.386 1772 321.366C1772.73 321.091 1773.47 320.817 1774.22 320.534C1776.85 319.429 1779.14 318.177 1781.57 316.678C1782.86 315.89 1782.86 315.89 1784.19 315.085C1785.12 314.517 1786.05 313.95 1787 313.366C1798.48 306.397 1798.48 306.397 1803.38 304.741C1806.76 303.458 1808.75 302.065 1811.41 299.675C1813.84 297.679 1816.54 296.3 1819.31 294.819C1822.6 293.044 1825.83 291.172 1829.07 289.303C1833.97 286.484 1838.9 283.814 1844 281.366C1844 280.706 1844 280.046 1844 279.366C1844.68 279.118 1845.37 278.871 1846.07 278.616C1848.84 277.437 1851.37 276.038 1853.97 274.534C1857.69 272.396 1861.44 270.324 1865.19 268.241C1865.98 267.799 1866.78 267.357 1867.6 266.901C1868.36 266.474 1869.13 266.048 1869.92 265.608C1870.61 265.225 1871.3 264.842 1872.01 264.447C1873.99 263.375 1875.99 262.36 1878 261.366C1878.65 256.381 1876.43 253.405 1873.69 249.491C1870.54 244.913 1868.05 240.548 1866 235.366C1865.34 235.366 1864.68 235.366 1864 235.366C1863.6 233.788 1863.6 233.788 1863.19 232.178C1862.12 228.752 1860.94 226.345 1859 223.366C1858.67 222.665 1858.34 221.963 1858 221.241C1857.1 219.318 1857.1 219.318 1855.57 217.991C1853.41 215.744 1852.31 213.172 1851 210.366C1847.51 210.366 1845.89 211.27 1842.82 212.866Z" fill="black"/>
<path d="M1817 72.3647C1817.66 73.3547 1818.32 74.3447 1819 75.3647C1820.24 76.9458 1821.48 78.526 1822.74 80.0979C1838.69 100.157 1838.69 100.157 1841 110.365C1840.67 111.355 1840.34 112.345 1840 113.365C1840 112.705 1840 112.045 1840 111.365C1836.54 111.86 1836.54 111.86 1833 112.365C1830.55 107.318 1828.65 102.331 1827.13 96.9272C1825.3 90.7382 1822.6 85.6908 1819 80.3647C1818.34 79.3747 1817.68 78.3847 1817 77.3647C1814.95 76.1724 1814.95 76.1724 1813 75.3647C1814.32 75.3647 1815.64 75.3647 1817 75.3647C1817 74.3747 1817 73.3847 1817 72.3647Z" fill="black"/>
<path d="M1636 586.366C1649.2 586.366 1662.4 586.366 1676 586.366C1672.44 588.741 1670.74 588.654 1666.51 588.745C1665.23 588.779 1663.95 588.813 1662.63 588.848C1661.27 588.875 1659.92 588.902 1658.57 588.928C1655.92 588.986 1653.28 589.052 1650.63 589.12C1648.87 589.156 1648.87 589.156 1647.07 589.192C1644.52 589.336 1642.45 589.729 1640 590.366C1637.25 589.928 1637.25 589.928 1635 589.366C1635.33 588.376 1635.66 587.386 1636 586.366Z" fill="black"/>
<path d="M1831 108.367C1831.45 108.862 1831.9 109.357 1832.37 109.867C1833.87 111.593 1833.87 111.593 1836 111.367C1837.23 116.138 1837.11 120.791 1837.06 125.679C1837.05 126.515 1837.05 127.351 1837.04 128.212C1837.03 130.264 1837.02 132.315 1837 134.367C1834.7 132.068 1834.54 131.061 1833.93 127.937C1833.75 127.059 1833.58 126.181 1833.4 125.277C1833.22 124.358 1833.05 123.439 1832.87 122.492C1832.69 121.58 1832.51 120.669 1832.32 119.73C1831.56 115.823 1831 112.37 1831 108.367Z" fill="black"/>
<path d="M1840 108.367C1846.21 113.866 1847.5 122.481 1848 130.367C1847.34 130.367 1846.68 130.367 1846 130.367C1846 129.047 1846 127.727 1846 126.367C1845.34 126.367 1844.68 126.367 1844 126.367C1844 125.047 1844 123.727 1844 122.367C1843.01 122.037 1842.02 121.707 1841 121.367C1840.29 119.058 1839.99 116.784 1839.63 114.398C1839.42 113.728 1839.22 113.057 1839 112.367C1838.01 112.037 1837.02 111.707 1836 111.367C1837.32 111.037 1838.64 110.707 1840 110.367C1840 109.707 1840 109.047 1840 108.367Z" fill="black"/>
</svg>
