<svg width="1914" height="639" viewBox="0 0 1914 639" fill="none" xmlns="http://www.w3.org/2000/svg">
<path d="M1713.7 23.0502C1716.93 23.0534 1720.15 23.0299 1723.38 23.0046C1734.94 22.969 1745.75 23.0302 1756.62 27.4272C1759.39 28.5205 1762.06 28.9559 1765 29.3659C1765 30.0259 1765 30.6859 1765 31.3659C1765.57 31.5477 1766.14 31.7294 1766.72 31.9167C1771.61 33.5068 1776.31 35.2705 1781 37.3659C1781 38.0259 1781 38.6859 1781 39.3659C1781.95 39.5309 1782.9 39.6959 1783.88 39.8659C1789.55 41.5034 1793.66 45.5156 1798 49.3659C1799.24 50.4603 1799.24 50.4603 1800.5 51.5769C1807.47 58.1081 1811.62 65.0461 1812.12 74.7136C1812.24 79.3854 1812.23 83.1465 1810 87.3659C1809.63 88.129 1809.26 88.8922 1808.88 89.6784C1808.59 90.2353 1808.3 90.7922 1808 91.3659C1806.68 91.3659 1805.36 91.3659 1804 91.3659C1804 92.0259 1804 92.6859 1804 93.3659C1794.11 97.8825 1784.39 95.3062 1774.7 91.7526C1772 90.3659 1772 90.3659 1771 87.3659C1769.36 86.6457 1767.68 85.9876 1766 85.3659C1764.25 84.2977 1762.52 83.1909 1760.81 82.0534C1740.16 68.829 1716.32 63.1257 1691.89 68.3034C1689.22 68.9516 1687.07 69.7659 1684.5 70.8659C1681.01 72.3596 1677.82 73.1474 1674.11 73.8386C1671.95 74.2956 1671.95 74.2956 1669.92 75.4245C1668 76.3659 1668 76.3659 1665 76.3659C1665 77.0259 1665 77.6859 1665 78.3659C1663.91 78.8197 1662.81 79.2734 1661.69 79.7409C1652.52 84.3584 1644.93 91.8793 1641 101.366C1640.62 102.235 1640.24 103.104 1639.86 103.999C1636.3 113.223 1636.63 119.726 1636 130.366C1678.57 130.366 1721.14 130.366 1765 130.366C1764.75 168.741 1764.75 168.741 1764.58 180.805C1764.58 184.411 1764.58 184.411 1764.61 188.016C1764.61 189.608 1764.59 191.199 1764.55 192.79C1764.07 201.863 1764.07 201.863 1767.23 210.075C1770.44 213.411 1774.13 215.837 1778 218.366C1778.33 219.026 1778.66 219.686 1779 220.366C1781.87 220.616 1781.87 220.616 1785 220.366C1786.02 219.382 1787.01 218.379 1788 217.366C1789.72 216.338 1791.48 215.363 1793.25 214.428C1794.24 213.902 1795.22 213.377 1796.24 212.835C1797.15 212.35 1798.06 211.865 1799 211.366C1802.17 209.578 1805.32 207.764 1808.46 205.917C1813.87 202.736 1819.31 199.632 1824.81 196.609C1831.13 193.135 1837.38 189.695 1843.27 185.522C1846.98 183.038 1849.5 182.116 1854 182.366C1854.33 183.686 1854.66 185.006 1855 186.366C1855.66 186.366 1856.32 186.366 1857 186.366C1857.4 187.102 1857.8 187.838 1858.21 188.596C1858.74 189.572 1859.27 190.548 1859.81 191.553C1860.33 192.516 1860.86 193.479 1861.39 194.471C1862.38 196.243 1863.38 198.004 1864.43 199.741C1866.49 203.177 1868.42 206.679 1870.38 210.178C1873.81 216.345 1873.81 216.345 1877.5 222.366C1880.42 226.906 1882.99 231.64 1885.61 236.353C1888.28 241.135 1891.07 245.824 1894 250.448C1895 252.366 1895 252.366 1895 255.366C1895.66 255.366 1896.32 255.366 1897 255.366C1897.31 255.94 1897.61 256.513 1897.93 257.104C1900.48 261.853 1903.09 266.548 1905.85 271.186C1906.35 272.029 1906.84 272.872 1907.36 273.74C1908.36 275.436 1909.37 277.127 1910.39 278.814C1910.86 279.604 1911.32 280.393 1911.8 281.206C1912.23 281.911 1912.65 282.616 1913.09 283.342C1914 285.366 1914 285.366 1914 289.366C1912.68 289.929 1912.68 289.929 1911.33 290.503C1910.17 291.014 1909.01 291.526 1907.81 292.053C1906.66 292.552 1905.52 293.051 1904.33 293.565C1900.86 295.439 1898.7 297.533 1896 300.366C1893.7 301.449 1891.37 302.444 1889 303.366C1884.06 305.637 1879.47 308.274 1874.89 311.194C1868.16 315.366 1868.16 315.366 1865 315.366C1864.67 316.356 1864.34 317.346 1864 318.366C1862.36 319.428 1862.36 319.428 1860.31 320.366C1859.59 320.702 1858.87 321.039 1858.13 321.385C1857.43 321.709 1856.72 322.033 1856 322.366C1854.39 323.201 1854.39 323.201 1852.75 324.053C1850.45 325.149 1848.48 325.888 1846 326.366C1846 327.026 1846 327.686 1846 328.366C1840.39 331.336 1834.78 334.306 1829 337.366C1829 338.356 1829 339.346 1829 340.366C1831.97 341.356 1834.94 342.346 1838 343.366C1838 344.026 1838 344.686 1838 345.366C1838.99 345.696 1839.98 346.026 1841 346.366C1841 347.026 1841 347.686 1841 348.366C1841.86 348.634 1842.72 348.902 1843.61 349.178C1846.99 350.363 1850.1 351.768 1853.31 353.366C1854.36 353.882 1855.41 354.397 1856.49 354.928C1859 356.366 1859 356.366 1860 358.366C1862.53 359.021 1862.53 359.021 1865 359.366C1865 360.026 1865 360.686 1865 361.366C1865.65 361.593 1866.3 361.82 1866.97 362.053C1871.83 364.156 1876.24 366.999 1880.76 369.733C1884.46 371.943 1888 373.767 1892 375.366C1894.31 376.768 1896.56 378.192 1898.81 379.678C1900.05 380.486 1901.29 381.293 1902.53 382.1C1903.12 382.489 1903.72 382.878 1904.33 383.278C1907.52 385.356 1910.76 387.358 1914 389.366C1912.6 393.05 1910.95 396.471 1909.06 399.928C1908.56 400.858 1908.05 401.787 1907.54 402.745C1906 405.366 1906 405.366 1904.4 407.46C1902.98 409.397 1902.26 411.033 1901.5 413.303C1900.33 416.59 1899.05 419.51 1897 422.366C1896.34 422.366 1895.68 422.366 1895 422.366C1894.71 422.946 1894.42 423.526 1894.12 424.124C1891.06 430.241 1891.06 430.241 1890 432.362C1889.18 433.998 1888.4 435.649 1887.62 437.303C1885.8 440.749 1883.68 443.897 1881.49 447.124C1877.79 452.513 1877.79 452.513 1875.5 458.553C1875 460.366 1875 460.366 1873.12 462.178C1870.92 464.451 1870.05 466.467 1868.91 469.385C1867.85 471.697 1866.52 473.654 1865.06 475.741C1862.08 480.07 1860 484.52 1858 489.366C1857.67 490.026 1857.34 490.686 1857 491.366C1856.34 491.366 1855.68 491.366 1855 491.366C1854.34 492.686 1853.68 494.006 1853 495.366C1848.51 494.853 1846.46 493.163 1843 490.366C1841.3 489.627 1839.59 488.891 1837.87 488.202C1835.16 486.988 1832.75 485.374 1830.25 483.768C1822.03 478.641 1822.03 478.641 1813 475.366C1811.67 474.033 1810.33 472.699 1809 471.366C1807.03 470.306 1805.04 469.291 1803 468.366C1803 467.706 1803 467.046 1803 466.366C1802.17 466.121 1801.34 465.876 1800.49 465.624C1796.47 464.174 1792.87 462.294 1789.12 460.241C1788.44 459.868 1787.75 459.496 1787.04 459.112C1785.36 458.201 1783.68 457.284 1782 456.366C1782 455.706 1782 455.046 1782 454.366C1781.15 454.118 1780.31 453.871 1779.44 453.616C1769.89 450.144 1769.89 450.144 1768 446.366C1765.47 445.71 1765.47 445.71 1763 445.366C1762.85 450.614 1762.77 455.856 1762.77 461.107C1762.76 462.889 1762.72 464.671 1762.67 466.452C1762.09 477.173 1762.09 477.173 1766.58 486.421C1769.68 488.809 1769.68 488.809 1772.93 490.597C1776.2 492.484 1778.42 494.623 1781 497.366C1782.86 498.925 1784.74 500.435 1786.64 501.936C1788 503.366 1788 503.366 1788 506.366C1788.6 506.61 1789.2 506.853 1789.81 507.104C1796 510.673 1798.45 519.027 1800.38 525.491C1804.22 541.621 1802.45 556.907 1793.75 571.178C1792.53 572.93 1791.28 574.659 1790 576.366C1789.32 577.29 1788.64 578.214 1787.94 579.167C1780.2 589.159 1770.69 597.33 1759 602.366C1758.01 602.366 1757.02 602.366 1756 602.366C1755.67 603.356 1755.34 604.346 1755 605.366C1752.24 606.795 1749.17 607.503 1746.19 608.366C1745.41 608.613 1744.62 608.861 1743.82 609.116C1728.21 613.75 1712.19 614.851 1696 614.702C1693.24 614.678 1690.48 614.682 1687.71 614.688C1674.55 614.668 1661.7 614.168 1649 610.366C1647.34 610.032 1645.67 609.717 1644 609.428C1639.65 608.596 1635.99 607.275 1632 605.366C1632 605.036 1632 604.706 1632 604.366C1643.55 604.036 1655.1 603.706 1667 603.366C1667 602.706 1667 602.046 1667 601.366C1669.84 600.419 1672.01 600.136 1674.97 599.936C1676.45 599.826 1676.45 599.826 1677.95 599.714C1680 599.567 1682.04 599.426 1684.09 599.292C1689.97 598.841 1695.21 597.898 1700.81 596.066C1703.55 595.19 1706.28 594.677 1709.12 594.241C1710.12 594.086 1711.12 593.932 1712.15 593.772C1715.76 593.257 1719.37 592.784 1723 592.366C1723 591.706 1723 591.046 1723 590.366C1723.77 590.1 1724.54 589.835 1725.34 589.561C1726.34 589.208 1727.34 588.855 1728.38 588.491C1729.37 588.143 1730.37 587.795 1731.4 587.436C1734.1 586.518 1734.1 586.518 1736 584.366C1737.13 583.995 1738.27 583.623 1739.44 583.241C1744.53 581.458 1748.45 578.281 1752.68 575.01C1755 573.366 1755 573.366 1757 573.366C1757 572.706 1757 572.046 1757 571.366C1758.64 569.677 1760.31 568.013 1762 566.366C1769.02 558.31 1770.36 550.713 1770.29 540.288C1769.87 536.031 1768.56 533.759 1766 530.366C1765.34 530.036 1764.68 529.706 1764 529.366C1764.01 530.582 1764.02 531.797 1764.04 533.05C1764.04 534.634 1764.05 536.219 1764.06 537.803C1764.07 538.606 1764.08 539.408 1764.09 540.235C1764.1 542.279 1764.05 544.323 1764 546.366C1763 547.366 1763 547.366 1760.99 547.489C1759.65 547.488 1759.65 547.488 1758.29 547.486C1757.27 547.488 1756.25 547.489 1755.2 547.49C1754.07 547.487 1752.94 547.483 1751.78 547.479C1750.6 547.48 1749.42 547.48 1748.2 547.48C1744.96 547.479 1741.71 547.474 1738.47 547.467C1735.08 547.461 1731.69 547.46 1728.3 547.459C1721.88 547.456 1715.46 547.448 1709.04 547.438C1701.73 547.427 1694.42 547.421 1687.11 547.416C1672.07 547.406 1657.04 547.388 1642 547.366C1642.01 546.3 1642.01 545.233 1642.02 544.135C1642.06 534.085 1642.06 524.036 1642.02 513.986C1642 508.819 1642 503.653 1642.03 498.486C1642.06 493.5 1642.05 488.515 1642.01 483.528C1642 481.626 1642.01 479.724 1642.03 477.821C1642.06 475.155 1642.03 472.494 1642 469.828C1642.02 469.042 1642.04 468.256 1642.06 467.446C1642.07 464.924 1642.07 464.924 1641 461.366C1639.08 459.675 1637.19 458.525 1634.91 457.358C1633 456.366 1633 456.366 1631 454.366C1626.65 453.762 1624.47 455.033 1620.94 457.491C1616.98 460.142 1613.04 462.422 1608.75 464.491C1604.73 466.438 1601.21 468.505 1597.66 471.198C1594.34 473.536 1590.15 476.366 1586 476.366C1585.67 477.356 1585.34 478.346 1585 479.366C1583.68 479.366 1582.36 479.366 1581 479.366C1581 480.026 1581 480.686 1581 481.366C1579.9 481.909 1578.81 482.451 1577.68 483.01C1576.22 483.733 1574.77 484.456 1573.31 485.178C1572.59 485.535 1571.87 485.891 1571.13 486.259C1563.65 489.677 1563.65 489.677 1558 495.366C1555.38 495.553 1555.38 495.553 1553 495.366C1549 488.616 1549 488.616 1549 486.366C1548.01 486.036 1547.02 485.706 1546 485.366C1545.04 483.616 1545.04 483.616 1544.19 481.366C1542.73 477.802 1541.04 474.819 1538.81 471.678C1536.43 468.253 1535.22 465.63 1535 461.366C1534.01 461.036 1533.02 460.706 1532 460.366C1530.75 458.257 1530.75 458.257 1529.56 455.616C1527.73 451.729 1525.71 448.707 1523 445.366C1522.27 443.671 1521.55 441.974 1520.84 440.272C1519.49 437.217 1517.81 434.375 1516.12 431.491C1515.42 430.267 1514.71 429.043 1514.01 427.819C1512.8 425.743 1511.59 423.669 1510.37 421.6C1509.92 420.822 1509.46 420.043 1509 419.241C1508.61 418.578 1508.22 417.916 1507.81 417.233C1507 415.366 1507 415.366 1507 411.366C1506.01 411.036 1505.02 410.706 1504 410.366C1502.39 408.151 1502.39 408.151 1500.81 405.428C1500.28 404.533 1499.75 403.637 1499.21 402.714C1498 400.366 1498 400.366 1498 398.366C1497.34 398.366 1496.68 398.366 1496 398.366C1492.68 393.288 1492.68 393.288 1492 391.366C1493.1 387.499 1495.52 386.088 1498.88 384.116C1499.74 383.595 1500.6 383.074 1501.49 382.538C1504 381.366 1504 381.366 1508 381.366C1508.33 380.376 1508.66 379.386 1509 378.366C1511.36 376.96 1513.67 375.707 1516.12 374.491C1517.51 373.78 1518.9 373.065 1520.29 372.346C1520.91 372.028 1521.54 371.71 1522.18 371.382C1524.64 370.008 1526.84 368.36 1529.07 366.643C1532.46 364.401 1536.16 362.733 1539.81 360.954C1545.16 358.328 1550.11 355.391 1554.99 351.971C1561.64 347.359 1568.72 343.867 1576 340.366C1575.86 338.459 1575.86 338.459 1575 336.366C1572.88 334.642 1572.88 334.642 1570.25 333.241C1569.39 332.743 1568.53 332.246 1567.64 331.733C1565.14 330.437 1562.64 329.361 1560 328.366C1560 327.706 1560 327.046 1560 326.366C1558.68 326.036 1557.36 325.706 1556 325.366C1556 324.706 1556 324.046 1556 323.366C1555.18 323.299 1554.36 323.232 1553.52 323.163C1548.97 322.132 1545.62 320.053 1541.69 317.616C1540.17 316.699 1538.65 315.782 1537.13 314.866C1536.41 314.429 1535.69 313.992 1534.95 313.542C1532.69 312.177 1530.39 310.882 1528.06 309.616C1525 307.937 1521.99 306.175 1519 304.366C1513.61 301.107 1508.11 298.058 1502.58 295.05C1501.39 294.402 1501.39 294.402 1500.19 293.741C1499.48 293.357 1498.77 292.973 1498.04 292.577C1495.9 291.309 1493.96 289.891 1492 288.366C1493.36 283.715 1495.28 280.009 1497.88 275.928C1498.6 274.775 1499.33 273.622 1500.05 272.467C1500.69 271.444 1501.34 270.42 1502 269.366C1503.37 267.051 1504.68 264.709 1506 262.366C1507.12 260.449 1508.25 258.532 1509.38 256.616C1513.45 249.643 1517.43 242.611 1521 235.366C1521.66 235.366 1522.32 235.366 1523 235.366C1523.1 234.647 1523.2 233.927 1523.3 233.186C1524.09 229.986 1525.34 227.967 1527.19 225.241C1530.79 219.775 1533.95 214.15 1537 208.366C1537.66 208.366 1538.32 208.366 1539 208.366C1539.12 207.63 1539.24 206.894 1539.36 206.136C1539.99 203.402 1540.84 201.475 1542.21 199.046C1542.65 198.263 1543.09 197.481 1543.54 196.675C1544 195.871 1544.46 195.068 1544.94 194.241C1545.39 193.43 1545.85 192.619 1546.32 191.784C1548.13 188.572 1549.95 185.437 1552 182.366C1555.56 181.633 1557.05 182.394 1560.23 184.194C1561.41 184.992 1562.58 185.8 1563.75 186.616C1568.37 189.733 1572.79 192.452 1578.04 194.417C1580 195.366 1580 195.366 1582.41 197.303C1585.01 199.374 1587.43 200.663 1590.44 202.053C1596.51 205.005 1602.05 208.504 1607.69 212.198C1614.98 216.971 1622.36 221.148 1630.24 224.874C1633 226.366 1633 226.366 1635.61 228.483C1637.94 230.32 1639.18 230.783 1642 231.366C1642.03 226.329 1642.01 221.296 1641.96 216.26C1641.94 214.548 1641.94 212.836 1641.96 211.124C1641.97 208.658 1641.94 206.195 1641.9 203.729C1641.92 202.587 1641.92 202.587 1641.95 201.421C1641.86 198.311 1641.68 196.024 1639.38 193.806C1637.48 192.451 1637.48 192.451 1635.5 191.361C1635 191.033 1634.51 190.704 1634 190.366C1634 189.706 1634 189.046 1634 188.366C1633.45 188.144 1632.9 187.922 1632.34 187.694C1629.28 185.955 1627 183.617 1624.56 181.116C1623.64 180.183 1622.71 179.249 1621.75 178.288C1607.5 163.351 1600.57 144.939 1600 124.366C1599.97 123.358 1599.94 122.35 1599.91 121.311C1599.73 106.95 1600.88 93.0865 1608 80.3659C1608.6 79.14 1608.6 79.14 1609.2 77.8894C1619.91 56.5359 1640.09 41.0141 1662 32.3659C1662.97 31.8297 1663.94 31.2934 1664.94 30.7409C1668.24 29.2579 1670.42 29.1105 1674 29.3659C1674 28.7059 1674 28.0459 1674 27.3659C1687.14 23.1841 1700.02 23.0222 1713.7 23.0502ZM1778 53.3659C1778.19 57.1916 1778.19 57.1916 1780 60.3659C1782.96 60.6993 1782.96 60.6993 1786 60.3659C1788.37 57.5177 1788.37 57.5177 1787.62 54.1784C1787.42 53.2503 1787.21 52.3222 1787 51.3659C1781.98 50.863 1781.98 50.863 1778 53.3659ZM1674 163.366C1674 203.956 1674 244.546 1674 286.366C1668.22 283.889 1662.74 281.421 1657.38 278.178C1654.05 276.051 1654.05 276.051 1650 276.366C1649.67 275.376 1649.34 274.386 1649 273.366C1646.92 271.819 1646.92 271.819 1644.38 270.428C1643.46 269.902 1642.55 269.377 1641.61 268.835C1640.75 268.35 1639.89 267.865 1639 267.366C1637.36 266.407 1637.36 266.407 1635.69 265.428C1631.18 262.862 1626.58 260.47 1621.99 258.05C1619 256.366 1619 256.366 1616.73 254.651C1615.09 253.167 1615.09 253.167 1613 253.366C1613 252.706 1613 252.046 1613 251.366C1611.3 250.809 1611.3 250.809 1609.56 250.241C1605.22 248.64 1601.71 246.286 1597.98 243.573C1595.96 242.106 1595.96 242.106 1593 242.366C1593 241.706 1593 241.046 1593 240.366C1591.91 239.83 1590.81 239.293 1589.69 238.741C1585.15 236.484 1580.74 234.022 1576.32 231.538C1574.14 230.216 1574.14 230.216 1572 230.366C1571.34 228.716 1570.68 227.066 1570 225.366C1567.71 224.778 1567.71 224.778 1565 225.366C1560.36 230.445 1558.63 235.766 1557 242.366C1556.34 242.366 1555.68 242.366 1555 242.366C1551.67 248.095 1551.67 248.095 1548.94 254.116C1548 256.366 1548 256.366 1546.19 258.616C1541.6 264.388 1538.47 269.947 1538 277.366C1542.8 280.707 1547.77 283.317 1553.05 285.809C1556.23 287.347 1558.57 288.834 1561 291.366C1564.11 292.093 1564.11 292.093 1567 292.366C1567 293.026 1567 293.686 1567 294.366C1567.96 294.521 1567.96 294.521 1568.94 294.678C1569.96 295.019 1569.96 295.019 1571 295.366C1571.33 296.356 1571.66 297.346 1572 298.366C1577.88 302.014 1584.25 304.831 1591 306.366C1591 307.026 1591 307.686 1591 308.366C1595.89 311.697 1601.11 314.572 1606.56 316.866C1610.69 318.667 1614.26 321.011 1618.03 323.464C1621.06 325.405 1624.14 327.242 1627.25 329.053C1628.24 329.631 1629.23 330.208 1630.25 330.803C1631.91 331.747 1633.58 332.671 1635.28 333.553C1639.74 335.89 1639.74 335.89 1641.12 338.428C1641 340.366 1641 340.366 1639.83 341.866C1637.55 343.737 1635.43 344.408 1632.62 345.303C1628.37 346.773 1625.32 348.245 1622 351.366C1618.85 354.008 1615.94 355.201 1612 356.366C1612 357.026 1612 357.686 1612 358.366C1611.32 358.613 1610.64 358.861 1609.94 359.116C1607.08 360.33 1604.49 361.795 1601.82 363.366C1600 364.366 1600 364.366 1596.5 365.803C1593.79 367.015 1591.99 368.007 1589.69 369.741C1586.16 372.392 1582.39 374.199 1578.42 376.108C1575.59 377.578 1573.17 379.348 1570.63 381.257C1568.56 382.665 1566.34 383.511 1564.02 384.421C1561.35 385.672 1558.97 387.255 1556.5 388.866C1552.42 391.526 1548.55 393.648 1544 395.366C1544 396.026 1544 396.686 1544 397.366C1542 398.366 1540 399.366 1538 400.366C1538.53 405.714 1540.47 409.724 1543 414.366C1543.66 414.366 1544.32 414.366 1545 414.366C1545.28 415.096 1545.57 415.825 1545.86 416.577C1548.96 424.165 1552.97 431.032 1557.43 437.889C1559.17 440.627 1560.61 443.44 1562 446.366C1562.98 448.042 1563.98 449.712 1565 451.366C1569.96 450.915 1571.59 449.826 1575 446.366C1577.23 444.979 1577.23 444.979 1579.75 443.678C1584.6 441.114 1589.41 438.491 1594.19 435.803C1595.22 435.223 1595.22 435.223 1596.28 434.631C1599.84 432.62 1603.36 430.564 1606.81 428.366C1610 426.366 1610 426.366 1613 425.366C1613 424.616 1613.01 423.866 1613.01 423.094C1613.26 397.075 1613.26 397.075 1617.94 387.651C1619.28 385.181 1619.28 385.181 1619 381.366C1619.66 381.366 1620.32 381.366 1621 381.366C1621.39 380.335 1621.78 379.303 1622.19 378.241C1623.36 375.453 1624.7 373.336 1626.69 371.053C1629.22 368.704 1629.22 368.704 1629 366.366C1629.66 366.366 1630.32 366.366 1631 366.366C1632.51 364.84 1632.51 364.84 1634 362.928C1636.8 359.468 1636.8 359.468 1639 358.366C1639 357.706 1639 357.046 1639 356.366C1639.7 356.124 1640.4 355.881 1641.12 355.632C1644.45 354.166 1647.07 352.27 1650 350.116C1656.31 345.582 1662.81 342.365 1670 339.366C1670 338.706 1670 338.046 1670 337.366C1671.32 337.366 1672.64 337.366 1674 337.366C1674 336.706 1674 336.046 1674 335.366C1674.56 335.196 1675.11 335.026 1675.69 334.85C1680.37 333.364 1684.66 331.625 1689 329.35C1692.24 327.753 1695.6 326.58 1699 325.366C1699 324.706 1699 324.046 1699 323.366C1699.78 323.16 1700.57 322.953 1701.38 322.741C1705.42 321.206 1708.8 319.155 1712.47 316.882C1715.28 315.2 1718.14 313.775 1721.11 312.421C1723.65 311.003 1725.76 309.213 1728 307.366C1729.24 306.393 1729.24 306.393 1730.5 305.401C1739.3 298.454 1748.72 290.461 1754 280.366C1754 279.376 1754 278.386 1754 277.366C1748.17 277.614 1744.89 279.457 1740.21 282.893C1738 284.366 1738 284.366 1733 286.366C1733 245.776 1733 205.186 1733 163.366C1713.53 163.366 1694.06 163.366 1674 163.366ZM1833.81 228.866C1832.91 229.33 1832.01 229.794 1831.08 230.272C1830.39 230.633 1829.71 230.994 1829 231.366C1829 232.026 1829 232.686 1829 233.366C1828.32 233.448 1827.64 233.531 1826.94 233.616C1823.13 234.589 1820.36 236.324 1817 238.366C1817 239.026 1817 239.686 1817 240.366C1816.18 240.613 1815.35 240.861 1814.5 241.116C1811.26 242.272 1808.31 243.513 1805.29 245.151C1803 246.366 1803 246.366 1800.11 247.55C1796.73 249.183 1794.52 250.554 1792 253.366C1790.56 257.623 1790.53 262.108 1790.32 266.561C1790.09 271.285 1789.17 275.624 1787.94 280.178C1786.84 284.232 1785.76 288.236 1785 292.366C1784.34 292.366 1783.68 292.366 1783 292.366C1782.42 293.542 1781.85 294.717 1781.25 295.928C1780.5 297.408 1779.75 298.887 1779 300.366C1778.44 301.48 1777.89 302.593 1777.31 303.741C1774.88 307.964 1771.53 311.389 1768.22 314.936C1765.97 317.34 1765.97 317.34 1763.96 319.948C1762.13 322.209 1760.27 324.041 1758.06 325.928C1757.03 326.818 1757.03 326.818 1755.97 327.725C1754.34 329.079 1752.68 330.386 1751 331.678C1750.34 332.235 1749.68 332.792 1749 333.366C1749 334.026 1749 334.686 1749 335.366C1748.3 335.593 1747.6 335.82 1746.88 336.053C1744.01 337.359 1742.04 338.99 1739.66 341.013C1736.97 343.202 1734.1 345.067 1731.19 346.928C1730.58 347.32 1729.96 347.713 1729.33 348.116C1724.73 351.015 1720.08 353.389 1715 355.366C1711.29 356.929 1707.64 358.526 1704.06 360.366C1700.14 362.362 1696.14 363.886 1692 365.366C1692 366.026 1692 366.686 1692 367.366C1691.16 367.621 1690.32 367.876 1689.46 368.139C1685.67 369.484 1682.2 371.156 1678.62 372.991C1677.98 373.316 1677.34 373.641 1676.68 373.975C1675.12 374.769 1673.56 375.567 1672 376.366C1672 377.026 1672 377.686 1672 378.366C1671.42 378.641 1670.84 378.915 1670.24 379.198C1664.04 382.434 1654.61 388.463 1652.34 395.366C1652 397.482 1652 397.482 1652 400.366C1656.65 399.8 1660.18 397.742 1664.12 395.366C1670.66 391.478 1670.66 391.478 1674 390.366C1674 431.616 1674 472.866 1674 515.366C1706.93 521.938 1706.93 521.938 1734 514.366C1734.11 512.87 1734.14 511.369 1734.15 509.869C1734.16 508.897 1734.17 507.926 1734.18 506.924C1734.18 505.85 1734.19 504.775 1734.19 503.667C1734.2 502.542 1734.21 501.417 1734.21 500.258C1734.23 497.805 1734.25 495.352 1734.26 492.9C1734.28 489.021 1734.31 485.143 1734.34 481.265C1734.4 473.028 1734.45 464.791 1734.5 456.553C1734.56 447.022 1734.62 437.491 1734.69 427.96C1734.72 424.133 1734.74 420.306 1734.76 416.48C1734.78 414.137 1734.79 411.795 1734.81 409.453C1734.81 408.384 1734.82 407.315 1734.82 406.214C1734.83 405.234 1734.84 404.254 1734.85 403.244C1734.85 402.394 1734.86 401.543 1734.86 400.667C1735 398.442 1735.38 396.502 1736 394.366C1745.72 396.081 1745.72 396.081 1748.37 398.741C1750.37 400.738 1752.51 402.04 1754.94 403.491C1755.79 404.009 1756.65 404.527 1757.53 405.061C1759.75 406.232 1761.59 406.798 1764 407.366C1764.5 407.882 1764.99 408.397 1765.5 408.928C1767.14 410.827 1767.14 410.827 1771 410.366C1771 411.026 1771 411.686 1771 412.366C1772.07 412.82 1773.14 413.273 1774.25 413.741C1775.5 414.282 1776.75 414.823 1778 415.366C1778.76 415.696 1779.53 416.026 1780.31 416.366C1782 417.366 1782 417.366 1784 420.366C1786.27 421.574 1786.27 421.574 1788.94 422.616C1794.09 424.849 1798.61 427.582 1803.29 430.659C1808.9 434.194 1814.83 436.959 1821 439.366C1821 440.026 1821 440.686 1821 441.366C1821.61 441.62 1822.23 441.874 1822.86 442.135C1823.67 442.48 1824.48 442.824 1825.31 443.178C1826.11 443.515 1826.91 443.851 1827.74 444.198C1830 445.364 1831.28 446.53 1833 448.366C1836.64 450.795 1838.71 450.528 1843 450.366C1843.66 448.056 1844.32 445.746 1845 443.366C1845.66 443.366 1846.32 443.366 1847 443.366C1847.35 442.627 1847.7 441.889 1848.07 441.128C1851.12 434.846 1854.44 428.948 1858.27 423.104C1860.58 419.456 1862.62 415.686 1864.64 411.874C1866 409.366 1866 409.366 1867.67 406.796C1869.32 404.242 1869.32 404.242 1869 400.366C1867.98 399.797 1866.97 399.229 1865.92 398.643C1858.57 394.523 1851.25 390.366 1843.98 386.104C1836.31 381.624 1828.58 377.245 1820.83 372.904C1814.15 369.164 1807.54 365.348 1801 361.366C1798.51 359.87 1796.02 358.378 1793.53 356.889C1791.76 355.825 1790 354.745 1788.25 353.655C1786.92 352.831 1786.92 352.831 1785.56 351.991C1784.76 351.488 1783.96 350.985 1783.13 350.467C1780.96 349.136 1780.96 349.136 1778 349.366C1777.67 348.376 1777.34 347.386 1777 346.366C1775.36 345.641 1773.68 344.988 1772 344.366C1770.76 343.676 1769.53 342.966 1768.31 342.241C1765.34 340.202 1765.34 340.202 1763 340.366C1763 339.376 1763 338.386 1763 337.366C1763.73 337.091 1764.46 336.817 1765.21 336.534C1767.85 335.429 1770.14 334.177 1772.56 332.678C1773.86 331.89 1773.86 331.89 1775.18 331.085C1776.11 330.517 1777.04 329.95 1778 329.366C1789.47 322.397 1789.47 322.397 1794.38 320.741C1797.76 319.458 1799.74 318.065 1802.4 315.675C1804.84 313.679 1807.54 312.3 1810.31 310.819C1813.6 309.044 1816.83 307.172 1820.06 305.303C1824.97 302.484 1829.9 299.814 1835 297.366C1835 296.706 1835 296.046 1835 295.366C1835.68 295.118 1836.36 294.871 1837.06 294.616C1839.83 293.437 1842.36 292.038 1844.97 290.534C1848.69 288.396 1852.44 286.324 1856.19 284.241C1856.98 283.799 1857.77 283.357 1858.59 282.901C1859.36 282.474 1860.13 282.048 1860.92 281.608C1861.61 281.225 1862.3 280.842 1863 280.447C1864.98 279.375 1866.98 278.36 1869 277.366C1869.65 272.381 1867.43 269.405 1864.69 265.491C1861.53 260.913 1859.05 256.548 1857 251.366C1856.34 251.366 1855.68 251.366 1855 251.366C1854.6 249.788 1854.6 249.788 1854.19 248.178C1853.12 244.752 1851.93 242.345 1850 239.366C1849.67 238.665 1849.34 237.963 1849 237.241C1848.1 235.318 1848.1 235.318 1846.56 233.991C1844.4 231.744 1843.31 229.172 1842 226.366C1838.51 226.366 1836.89 227.27 1833.81 228.866Z" fill="black"/>
<path d="M1808 88.3647C1808.66 89.3547 1809.32 90.3447 1810 91.3647C1811.24 92.9458 1812.48 94.526 1813.73 96.0979C1829.69 116.157 1829.69 116.157 1832 126.365C1831.67 127.355 1831.34 128.345 1831 129.365C1831 128.705 1831 128.045 1831 127.365C1827.54 127.86 1827.54 127.86 1824 128.365C1821.55 123.318 1819.65 118.331 1818.12 112.927C1816.3 106.738 1813.6 101.691 1810 96.3647C1809.34 95.3747 1808.68 94.3847 1808 93.3647C1805.95 92.1724 1805.95 92.1724 1804 91.3647C1805.32 91.3647 1806.64 91.3647 1808 91.3647C1808 90.3747 1808 89.3847 1808 88.3647Z" fill="black"/>
<path d="M1627 602.365C1640.2 602.365 1653.4 602.365 1667 602.365C1663.44 604.74 1661.74 604.654 1657.5 604.744C1656.22 604.778 1654.94 604.812 1653.62 604.848C1652.27 604.875 1650.92 604.902 1649.56 604.928C1646.92 604.986 1644.27 605.051 1641.63 605.119C1639.87 605.155 1639.87 605.155 1638.07 605.192C1635.52 605.336 1633.45 605.729 1631 606.365C1628.25 605.928 1628.25 605.928 1626 605.365C1626.33 604.375 1626.66 603.385 1627 602.365Z" fill="black"/>
<path d="M1821.99 124.367C1822.45 124.862 1822.9 125.357 1823.37 125.867C1824.87 127.593 1824.87 127.593 1826.99 127.367C1828.23 132.138 1828.1 136.791 1828.05 141.679C1828.05 142.515 1828.05 143.351 1828.04 144.212C1828.03 146.264 1828.01 148.315 1827.99 150.367C1825.69 148.068 1825.53 147.061 1824.92 143.937C1824.75 143.059 1824.57 142.181 1824.39 141.277C1824.22 140.358 1824.05 139.439 1823.87 138.492C1823.69 137.58 1823.5 136.669 1823.32 135.73C1822.56 131.823 1821.99 128.37 1821.99 124.367Z" fill="black"/>
<path d="M1831 124.367C1837.21 129.866 1838.49 138.481 1839 146.367C1838.34 146.367 1837.68 146.367 1837 146.367C1837 145.047 1837 143.727 1837 142.367C1836.34 142.367 1835.68 142.367 1835 142.367C1835 141.047 1835 139.727 1835 138.367C1834.01 138.037 1833.02 137.707 1832 137.367C1831.29 135.058 1830.99 132.784 1830.62 130.398C1830.42 129.728 1830.21 129.057 1830 128.367C1829.01 128.037 1828.02 127.707 1827 127.367C1828.32 127.037 1829.64 126.707 1831 126.367C1831 125.707 1831 125.047 1831 124.367Z" fill="black"/>
<path d="M28 67.7708C52.75 67.7708 77.5 67.7708 103 67.7708C125.874 126.69 148.658 185.647 171 244.771C176.424 231.328 181.705 217.836 186.892 204.3C189.071 198.615 191.255 192.931 193.438 187.247C193.892 186.064 194.346 184.88 194.815 183.66C200.358 169.228 205.932 154.808 211.505 140.387C216.477 127.519 221.437 114.647 226.355 101.759C226.779 100.651 227.202 99.5421 227.638 98.4C229.64 93.158 231.638 87.915 233.631 82.67C234.334 80.8286 235.036 78.9872 235.738 77.1458C236.057 76.304 236.376 75.4623 236.704 74.595C238.887 68.8842 238.887 68.8842 240 67.7708C242.343 67.6759 244.655 67.6452 246.998 67.6573C248.096 67.6571 248.096 67.6571 249.215 67.6568C251.645 67.6575 254.074 67.6653 256.504 67.6732C258.184 67.675 259.864 67.6764 261.544 67.6774C265.975 67.6813 270.405 67.6911 274.836 67.7021C279.353 67.7124 283.871 67.7169 288.389 67.722C297.259 67.7327 306.13 67.7498 315 67.7708C316.179 76.9126 317.288 86.0427 318.078 95.2278C318.17 96.2645 318.262 97.3011 318.356 98.3692C318.657 101.774 318.953 105.178 319.25 108.583C319.467 111.042 319.683 113.5 319.901 115.959C320.303 120.52 320.706 125.081 321.107 129.641C322.243 142.56 323.403 155.476 324.562 168.393C324.941 172.622 325.32 176.85 325.698 181.079C326.84 193.83 327.982 206.581 329.129 219.331C329.754 226.269 330.377 233.208 331 240.146C331.061 240.827 331.122 241.509 331.186 242.211C332.694 259.012 334.184 275.813 335.641 292.618C335.742 293.792 335.742 293.792 335.846 294.989C336.504 302.58 337.161 310.172 337.814 317.764C338.052 320.534 338.291 323.305 338.53 326.076C338.701 328.054 338.871 330.032 339.041 332.01C339.523 337.561 340.021 343.107 340.615 348.646C340.71 349.531 340.804 350.417 340.902 351.329C341.07 352.87 341.244 354.411 341.429 355.95C342.24 363.317 342 370.193 342 377.771C318.9 377.771 295.8 377.771 272 377.771C269.58 349.9 269.58 349.9 268.711 339.505C268.619 338.405 268.619 338.405 268.525 337.283C266.437 312.246 264.47 287.199 262.498 262.152C262.187 258.208 261.875 254.264 261.562 250.319C261.062 244.014 260.566 237.707 260.073 231.401C259.888 229.043 259.702 226.686 259.514 224.328C259.255 221.061 259 217.794 258.747 214.526C258.671 213.58 258.594 212.633 258.516 211.657C258.059 205.683 257.913 199.762 258 193.771C255.314 196.308 254.241 198.278 253.046 201.801C252.69 202.834 252.335 203.868 251.968 204.933C251.591 206.059 251.213 207.185 250.824 208.345C250.222 210.106 250.222 210.106 249.608 211.902C248.744 214.43 247.884 216.96 247.029 219.492C245.677 223.495 244.312 227.494 242.945 231.492C241.57 235.516 240.195 239.541 238.824 243.566C235.289 253.945 231.698 264.302 228.062 274.646C227.527 276.172 226.991 277.699 226.456 279.226C225.611 281.634 224.765 284.042 223.92 286.451C221.181 294.251 218.449 302.054 215.719 309.857C215.487 310.52 215.254 311.184 215.015 311.867C213.833 315.246 212.65 318.625 211.468 322.004C210.323 325.277 209.177 328.551 208.032 331.824C207.375 333.698 206.719 335.573 206.063 337.448C205.221 339.855 204.378 342.262 203.534 344.669C201.631 350.101 199.733 355.536 197.851 360.976C197.525 361.917 197.198 362.858 196.862 363.828C196.26 365.563 195.661 367.299 195.064 369.036C193.112 374.659 193.112 374.659 192 375.771C188.897 375.86 185.817 375.886 182.715 375.868C181.784 375.867 180.853 375.866 179.894 375.864C176.909 375.859 173.923 375.846 170.938 375.833C168.919 375.828 166.9 375.824 164.881 375.82C159.921 375.809 154.96 375.791 150 375.771C149.806 375.208 149.611 374.646 149.411 374.066C139.976 346.763 130.52 319.467 120.957 292.209C118.468 285.111 115.986 278.011 113.504 270.911C112.113 266.931 110.722 262.952 109.331 258.972C108.196 255.727 107.061 252.481 105.928 249.235C103.392 241.976 100.849 234.721 98.2976 227.468C97.1631 224.236 96.0346 221.001 94.9084 217.766C93.9927 215.141 93.0709 212.517 92.1475 209.895C91.4966 208.04 90.8531 206.183 90.2098 204.326C89.818 203.217 89.4261 202.108 89.0225 200.965C88.6792 199.984 88.336 199.002 87.9824 197.99C87.211 195.611 87.211 195.611 85 194.771C84.9271 195.852 84.8542 196.933 84.7792 198.047C83.0498 223.614 81.1314 249.159 79.0096 274.697C78.2384 283.98 77.4778 293.264 76.7188 302.548C76.644 303.462 76.5692 304.377 76.4921 305.319C74.5196 329.46 72.7456 353.612 71 377.771C47.57 377.771 24.14 377.771 0 377.771C0.60899 367.418 1.25137 357.128 2.19922 346.81C2.37631 344.845 2.5534 342.88 2.73049 340.915C2.91803 338.84 3.10688 336.765 3.29614 334.69C3.69814 330.283 4.09639 325.876 4.49414 321.468C4.98128 316.072 5.46923 310.677 5.95828 305.281C6.8179 295.797 7.67094 286.311 8.51953 276.826C8.5808 276.141 8.64208 275.456 8.7052 274.75C9.01349 271.304 9.32165 267.857 9.62976 264.411C10.191 258.133 10.7534 251.856 11.3157 245.579C11.6287 242.085 11.9415 238.591 12.2544 235.097C12.3161 234.408 12.3779 233.718 12.4415 233.008C12.8724 228.196 13.3032 223.385 13.7339 218.573C13.7942 217.899 13.8545 217.226 13.9166 216.532C14.2218 213.123 14.527 209.713 14.8321 206.304C15.4443 199.464 16.057 192.625 16.6709 185.786C16.92 183.01 17.169 180.234 17.418 177.458C17.4803 176.763 17.5426 176.069 17.6069 175.353C18.4604 165.834 19.307 156.315 20.1482 146.796C20.7805 139.641 21.4151 132.488 22.0511 125.334C22.511 120.16 22.9676 114.985 23.4219 109.81C23.706 106.582 23.9934 103.355 24.2816 100.127C24.414 98.6375 24.5451 97.1475 24.6748 95.6575C24.8548 93.5903 25.0397 91.5237 25.2256 89.4571C25.3274 88.3046 25.4292 87.1521 25.5341 85.9647C26.2098 79.882 27.1345 73.8294 28 67.7708Z" fill="#FF3232"/>
<path d="M484 67.772C643.939 67.772 643.939 67.772 675.93 99.6978C683.687 108.024 688.604 117.997 692 128.772C692.557 130.443 692.557 130.443 693.125 132.147C699.843 159.978 696.379 188.86 681.75 213.522C670.588 230.078 654.826 242.087 636 248.772C635.01 248.772 634.02 248.772 633 248.772C638.64 256.283 644.453 263.577 650.604 270.677C654.393 275.051 658.074 279.502 661.723 283.995C664.282 287.116 666.886 290.196 669.5 293.272C673.621 298.122 677.67 303.024 681.688 307.959C684.261 311.09 686.876 314.184 689.5 317.272C693.621 322.122 697.67 327.024 701.688 331.959C704.261 335.09 706.876 338.184 709.5 341.272C713.537 346.026 717.522 350.817 721.453 355.659C723.505 358.179 725.586 360.674 727.672 363.167C728.313 363.936 728.955 364.706 729.616 365.5C730.9 367.04 732.188 368.577 733.48 370.111C734.065 370.815 734.651 371.519 735.254 372.245C736.048 373.192 736.048 373.192 736.858 374.159C738 375.772 738 375.772 738 377.772C726.587 378.097 715.174 378.346 703.757 378.497C698.455 378.57 693.155 378.669 687.855 378.828C682.732 378.981 677.613 379.064 672.488 379.1C670.54 379.126 668.592 379.176 666.645 379.252C651.813 379.807 651.813 379.807 647.117 376.409C643.805 373.144 641.331 369.462 639.006 365.454C637.607 363.115 635.936 361.034 634.215 358.924C633.122 357.52 632.029 356.115 630.938 354.709C630.348 353.951 629.759 353.193 629.151 352.412C624.079 345.882 619.034 339.331 614 332.772C612.334 330.605 610.667 328.438 609 326.272C606.545 323.082 604.091 319.891 601.641 316.698C596.783 310.372 591.9 304.065 587 297.772C581.306 290.459 575.642 283.125 570 275.772C568.209 273.438 566.417 271.105 564.625 268.772C563.834 267.741 563.042 266.709 562.227 265.647C560.178 263.001 558.09 260.385 556 257.772C555.67 297.372 555.34 336.972 555 377.772C531.57 377.772 508.14 377.772 484 377.772C484 275.472 484 173.172 484 67.772ZM555 124.772C555 151.172 555 177.572 555 204.772C584.623 206.345 584.623 206.345 611 194.772C618.943 185.805 621.522 177.13 621.438 165.397C621.457 164.42 621.477 163.443 621.498 162.436C621.491 152.575 618.451 143.451 611.508 136.217C596.093 121.939 574.671 124.772 555 124.772Z" fill="black"/>
<path d="M1002 67.772C1161.88 67.772 1161.88 67.772 1193.94 99.7017C1210.3 117.309 1214.96 141.831 1214.29 165.139C1213.15 187.828 1205.21 208.777 1190 225.772C1189.47 226.395 1188.94 227.017 1188.4 227.659C1179.46 237.488 1166.45 244.54 1154 248.772C1153.01 248.772 1152.02 248.772 1151 248.772C1154.93 253.966 1159.02 259.009 1163.25 263.959C1167.08 268.436 1170.77 272.99 1174.38 277.647C1178.83 283.392 1183.51 288.903 1188.3 294.373C1192.22 298.85 1196.01 303.407 1199.76 308.03C1202.3 311.142 1204.9 314.209 1207.5 317.272C1211.62 322.121 1215.67 327.024 1219.69 331.959C1222.26 335.09 1224.88 338.184 1227.5 341.272C1231.62 346.115 1235.66 351.008 1239.67 355.94C1241.38 358.022 1243.11 360.085 1244.86 362.135C1245.35 362.709 1245.84 363.283 1246.35 363.874C1247.29 364.979 1248.24 366.082 1249.2 367.182C1252.08 370.556 1254.56 374.063 1257 377.772C1245.46 378.097 1233.91 378.346 1222.37 378.497C1217 378.57 1211.64 378.669 1206.28 378.828C1201.1 378.981 1195.92 379.064 1190.74 379.1C1188.77 379.126 1186.8 379.176 1184.83 379.252C1169.85 379.807 1169.85 379.807 1165.12 376.432C1161.83 373.203 1159.39 369.549 1157.09 365.571C1155.35 362.7 1153.27 360.147 1151.19 357.522C1150.36 356.449 1149.54 355.376 1148.72 354.303C1145.56 350.194 1142.37 346.109 1139.19 342.022C1134.06 335.435 1128.97 328.816 1123.9 322.176C1119.31 316.166 1114.68 310.196 1110.03 304.232C1104.58 297.241 1099.18 290.219 1093.78 283.185C1087.25 274.663 1080.63 266.216 1074 257.772C1073.67 297.372 1073.34 336.972 1073 377.772C1049.57 377.772 1026.14 377.772 1002 377.772C1002 275.472 1002 173.172 1002 67.772ZM1073 124.772C1073 151.502 1073 178.232 1073 205.772C1104.08 206.664 1104.08 206.664 1131 192.772C1137.87 184.314 1139.51 174.9 1139.44 164.272C1139.46 163.291 1139.48 162.31 1139.5 161.299C1139.49 151.679 1136.25 143.257 1129.51 136.213C1114.07 121.949 1092.71 124.772 1073 124.772Z" fill="black"/>
<path d="M752.996 68.771C918.935 68.771 918.935 68.771 950.926 100.697C966.01 116.887 971.622 139.486 971.371 161.083C971.362 162.35 971.352 163.616 971.343 164.92C970.923 191.038 963.24 215.073 944.762 234.068C932.398 245.785 917.382 253.856 901.059 258.521C900.368 258.72 899.677 258.919 898.966 259.124C874.163 265.778 848.444 262.771 822.996 262.771C822.996 300.721 822.996 338.671 822.996 377.771C799.896 377.771 776.796 377.771 752.996 377.771C752.996 275.801 752.996 173.831 752.996 68.771ZM822.996 124.771C822.996 151.831 822.996 178.891 822.996 206.771C857.748 207.653 857.748 207.653 888.434 192.498C897.204 181.79 897.961 169.16 896.996 155.771C894.754 146.697 889.698 139.073 881.996 133.771C862.805 123.023 845.307 124.771 822.996 124.771Z" fill="black"/>
<path d="M1271 68.771C1329.08 68.771 1387.16 68.771 1447 68.771C1447 88.901 1447 109.031 1447 129.771C1412.02 129.771 1377.04 129.771 1341 129.771C1341 150.231 1341 170.691 1341 191.771C1374.66 191.771 1408.32 191.771 1443 191.771C1443 211.901 1443 232.031 1443 252.771C1409.34 252.771 1375.68 252.771 1341 252.771C1341 273.561 1341 294.351 1341 315.771C1376.31 315.771 1411.62 315.771 1448 315.771C1448 336.231 1448 356.691 1448 377.771C1389.59 377.771 1331.18 377.771 1271 377.771C1271 275.801 1271 173.831 1271 68.771Z" fill="black"/>
<path d="M371 184.771C437 184.771 437 184.771 438 185.771C438.098 188.25 438.13 190.701 438.12 193.18C438.121 193.965 438.122 194.75 438.123 195.559C438.124 198.209 438.119 200.859 438.114 203.51C438.113 205.401 438.113 207.293 438.114 209.185C438.114 214.337 438.108 219.49 438.101 224.643C438.095 230.021 438.095 235.4 438.093 240.778C438.09 250.971 438.082 261.164 438.072 271.356C438.061 282.957 438.055 294.558 438.05 306.159C438.04 330.03 438.022 353.9 438 377.771C415.89 377.771 393.78 377.771 371 377.771C371 314.081 371 250.391 371 184.771Z" fill="#FF3333"/>
<path d="M426.205 72.0917C434.535 77.8988 441.401 85.8318 444.006 95.7714C445.644 108.1 444.509 119.344 436.951 129.545C429.127 138.778 420.572 143.914 408.455 145.127C396.517 145.578 387.15 142.385 377.971 134.717C374.652 131.43 372.276 127.835 370.006 123.771C369.592 123.084 369.179 122.397 368.752 121.689C364.231 113.199 364.963 102.375 367.131 93.205C371.058 82.2829 379.18 73.8283 389.506 68.7714C401.548 64.2346 415.219 65.496 426.205 72.0917Z" fill="#FF3232"/>
<path d="M1446.5 2.77092C1452.54 6.32691 1458.11 11.9067 1460.57 18.599C1462.34 27.3848 1461.94 36.1676 1457 43.7709C1452.59 50.3164 1447.78 54.0676 1440 55.7709C1430.97 56.8605 1423.49 56.1998 1416 50.7709C1409.75 45.5567 1406.8 38.1319 1405.62 30.1928C1405.25 22.2877 1407.85 15.2271 1412.63 8.95842C1421.43 -0.253326 1434.87 -2.44331 1446.5 2.77092ZM1416.25 12.5834C1411.42 19.4298 1409.81 25.4939 1411 33.7709C1413.21 40.5915 1416.89 45.9389 1423 49.7709C1429.1 52.6433 1435.27 52.872 1441.73 50.9662C1448.22 48.1234 1451.92 44.1228 1455 37.7709C1457.22 30.976 1456.82 23.0151 1453.99 16.4858C1451.15 11.5441 1446.37 7.56081 1441 5.77092C1430.66 5.03048 1423.8 4.86544 1416.25 12.5834Z" fill="black"/>
<path d="M1423 12.772C1438 12.772 1438 12.772 1444 15.772C1446.33 19.26 1446.33 20.6734 1446 24.772C1445.31 27.022 1445.31 27.022 1444 28.772C1442.35 29.4806 1440.68 30.1515 1439 30.772C1439.76 31.82 1439.76 31.82 1440.53 32.8892C1441.51 34.2543 1441.51 34.2543 1442.5 35.647C1443.15 36.5519 1443.8 37.4568 1444.47 38.3892C1446 40.772 1446 40.772 1446 42.772C1442.94 43.4595 1442.94 43.4595 1439 42.772C1436.86 40.0742 1435.23 37.2974 1433.58 34.2759C1432.19 31.4821 1432.19 31.4821 1429 30.772C1429 34.732 1429 38.692 1429 42.772C1427.02 42.772 1425.04 42.772 1423 42.772C1423 32.872 1423 22.972 1423 12.772ZM1429 18.772C1429 21.082 1429 23.392 1429 25.772C1432.3 25.772 1435.6 25.772 1439 25.772C1439.68 23.3748 1439.68 23.3748 1440 20.772C1438.21 18.5583 1438.21 18.5583 1435.84 18.5767C1435.02 18.5999 1434.21 18.6231 1433.38 18.647C1432.15 18.674 1432.15 18.674 1430.9 18.7017C1429.96 18.7365 1429.96 18.7365 1429 18.772Z" fill="black"/>
<path d="M761.115 464.271C762.378 464.276 763.642 464.281 764.943 464.286C784.302 464.643 801.101 470.152 815.99 482.771C816.617 483.264 817.243 483.758 817.889 484.267C832.16 495.765 838.814 513.301 841.99 530.771C841.99 541.001 841.99 551.231 841.99 561.771C797.77 561.771 753.55 561.771 707.99 561.771C710.4 577.434 713.935 591.884 726.764 602.212C737.211 609.525 747.599 613.35 760.365 613.146C761.283 613.136 762.2 613.127 763.146 613.117C775.525 612.842 788.919 609.842 797.99 600.771C802.489 595.008 805.69 589.371 808.99 582.771C818.89 582.771 828.79 582.771 838.99 582.771C833.809 601.767 823.378 617.269 806.154 627.446C799.051 631.203 791.765 633.782 783.99 635.771C783.118 635.998 782.245 636.224 781.346 636.458C767.177 639.445 749.675 639.708 735.99 634.771C735.089 634.492 734.188 634.214 733.26 633.927C714.828 627.896 698.743 615.066 689.722 597.852C681.766 581.994 678.633 567.633 678.678 549.833C678.662 548.565 678.646 547.298 678.629 545.991C678.617 523.147 687.398 501.727 703.322 485.376C705.479 483.401 707.679 481.562 709.99 479.771C710.662 479.241 711.333 478.711 712.025 478.165C726.159 467.889 743.963 464.181 761.115 464.271ZM717.99 507.771C711.063 517.294 707.99 527.063 707.99 538.771C742.64 538.771 777.29 538.771 812.99 538.771C812.99 523.402 810.29 513.378 799.99 502.083C787.597 490.216 771.055 487.22 754.51 487.493C739.62 488.117 727.399 496.769 717.99 507.771Z" fill="black"/>
<path d="M511 420.772C616.885 420.772 616.885 420.772 638.543 441.1C651.891 455.615 655.082 471.085 654.512 490.42C653.638 505.294 646.274 519.683 635.402 529.866C618.772 543.062 600.031 545.967 579.332 545.87C578.301 545.869 577.27 545.868 576.208 545.867C572.41 545.861 568.611 545.847 564.812 545.834C556.294 545.814 547.776 545.793 539 545.772C539 575.472 539 605.172 539 635.772C529.76 635.772 520.52 635.772 511 635.772C511 564.822 511 493.872 511 420.772ZM539 443.772C539 469.842 539 495.912 539 522.772C547.58 522.813 556.16 522.854 565 522.897C567.694 522.915 570.388 522.933 573.164 522.952C575.318 522.958 577.471 522.963 579.625 522.967C580.728 522.978 581.832 522.988 582.969 522.998C595.2 523.001 607.154 520.334 616.25 511.678C624.801 502.364 626.793 491.052 626.348 478.713C625.452 468.554 621.817 459.836 614.07 453.092C602.608 444.653 588.675 443.602 574.938 443.674C574.022 443.675 573.106 443.676 572.162 443.677C568.775 443.683 565.387 443.697 562 443.709C554.41 443.73 546.82 443.751 539 443.772Z" fill="black"/>
<path d="M885.988 424.77C895.228 424.77 904.468 424.77 913.988 424.77C913.988 438.63 913.988 452.49 913.988 466.77C928.508 466.77 943.028 466.77 957.988 466.77C957.988 474.36 957.988 481.95 957.988 489.77C943.468 489.77 928.948 489.77 913.988 489.77C914.051 503.878 914.127 517.986 914.224 532.095C914.269 538.646 914.308 545.197 914.335 551.748C914.361 558.069 914.401 564.391 914.451 570.713C914.468 573.125 914.48 575.537 914.486 577.949C914.496 581.327 914.524 584.705 914.556 588.083C914.554 589.081 914.553 590.078 914.552 591.106C914.623 596.41 914.997 600.197 917.988 604.77C923.177 609.818 928.618 610.989 935.699 611.184C937.565 611.242 937.565 611.242 939.469 611.301C940.754 611.332 942.039 611.363 943.363 611.395C944.672 611.434 945.98 611.472 947.328 611.512C950.548 611.606 953.768 611.689 956.988 611.77C956.988 619.36 956.988 626.95 956.988 634.77C951.814 634.863 946.642 634.942 941.467 634.99C939.713 635.01 937.958 635.037 936.204 635.072C921.887 635.35 908.361 634.692 896.988 624.77C889.617 617.25 885.856 606.41 885.868 595.955C885.867 595.014 885.865 594.073 885.864 593.104C885.867 592.084 885.871 591.064 885.875 590.013C885.875 588.93 885.874 587.846 885.874 586.73C885.875 583.153 885.883 579.577 885.891 576C885.892 573.519 885.894 571.037 885.895 568.556C885.899 562.028 885.909 555.5 885.92 548.971C885.93 542.309 885.934 535.646 885.939 528.983C885.95 515.912 885.968 502.841 885.988 489.77C878.728 489.77 871.468 489.77 863.988 489.77C863.988 482.18 863.988 474.59 863.988 466.77C871.248 466.77 878.508 466.77 885.988 466.77C885.988 452.91 885.988 439.05 885.988 424.77Z" fill="black"/>
</svg>
