<svg width="422" height="592" viewBox="0 0 422 592" fill="none" xmlns="http://www.w3.org/2000/svg">
<path d="M177.5 250.5V131.5H251V244.5L290 227L350.5 188.5L392 257.5L375 268.5L338.5 293L297.5 320.5L392 374L375 416.5L347 436L251 394.5L246.5 499L227 508.5L172 499V384L126.5 409.5L77.5 441L36.5 374L42.5 368L131 313.5L31.5 257.5L36.5 250.5L70.5 192.5L77.5 197L177.5 250.5Z" fill="#F01A1E" stroke="#EB222A"/>
<mask id="path-2-inside-1_5012_494" fill="white">
<path d="M221.699 0.0502495C224.927 0.0534127 228.153 0.0298774 231.381 0.00459519C242.939 -0.030966 253.75 0.0301795 264.625 4.4272C267.391 5.52051 270.062 5.95592 273 6.36592C273 7.02592 273 7.68592 273 8.36592C273.568 8.54768 274.137 8.72944 274.723 8.9167C279.607 10.5068 284.31 12.2705 289 14.3659C289 15.0259 289 15.6859 289 16.3659C289.949 16.5309 290.897 16.6959 291.875 16.8659C297.555 18.5034 301.66 22.5156 306 26.3659C307.237 27.4603 307.237 27.4603 308.5 28.5769C315.467 35.1081 319.622 42.0461 320.121 51.7136C320.238 56.3854 320.234 60.1465 318 64.3659C317.629 65.129 317.257 65.8922 316.875 66.6784C316.586 67.2353 316.298 67.7922 316 68.3659C314.68 68.3659 313.36 68.3659 312 68.3659C312 69.0259 312 69.6859 312 70.3659C302.114 74.8825 292.393 72.3062 282.703 68.7526C280 67.3659 280 67.3659 279 64.3659C277.356 63.6457 275.684 62.9876 274 62.3659C272.248 61.2977 270.52 60.1909 268.812 59.0534C248.156 45.829 224.322 40.1257 199.887 45.3034C197.216 45.9516 195.067 46.7659 192.5 47.8659C189.015 49.3596 185.819 50.1474 182.113 50.8386C179.946 51.2956 179.946 51.2956 177.918 52.4245C176 53.3659 176 53.3659 173 53.3659C173 54.0259 173 54.6859 173 55.3659C171.907 55.8197 170.814 56.2734 169.688 56.7409C160.518 61.3584 152.935 68.8793 149 78.3659C148.622 79.2347 148.245 80.1036 147.855 80.9987C144.299 90.2227 144.626 96.7264 144 107.366C186.57 107.366 229.14 107.366 273 107.366C272.75 145.741 272.75 145.741 272.577 157.805C272.584 161.411 272.584 161.411 272.606 165.016C272.608 166.608 272.587 168.199 272.547 169.79C272.066 178.863 272.066 178.863 275.228 187.075C278.437 190.411 282.133 192.837 286 195.366C286.33 196.026 286.66 196.686 287 197.366C289.875 197.616 289.875 197.616 293 197.366C294.016 196.382 295.013 195.379 296 194.366C297.722 193.338 299.476 192.363 301.25 191.428C302.236 190.902 303.222 190.377 304.238 189.835C305.15 189.35 306.061 188.865 307 188.366C310.172 186.578 313.323 184.764 316.461 182.917C321.873 179.736 327.312 176.632 332.813 173.609C339.132 170.135 345.379 166.695 351.273 162.522C354.983 160.038 357.497 159.116 362 159.366C362.33 160.686 362.66 162.006 363 163.366C363.66 163.366 364.32 163.366 365 163.366C365.398 164.102 365.797 164.838 366.207 165.596C366.737 166.572 367.267 167.548 367.812 168.553C368.335 169.516 368.857 170.479 369.395 171.471C370.377 173.243 371.383 175.004 372.426 176.741C374.487 180.177 376.424 183.679 378.375 187.178C381.814 193.345 381.814 193.345 385.5 199.366C388.416 203.906 390.99 208.64 393.613 213.353C396.282 218.135 399.067 222.824 402.004 227.448C403 229.366 403 229.366 403 232.366C403.66 232.366 404.32 232.366 405 232.366C405.306 232.94 405.611 233.513 405.926 234.104C408.484 238.853 411.094 243.548 413.848 248.186C414.345 249.029 414.843 249.872 415.356 250.74C416.361 252.436 417.373 254.127 418.392 255.814C418.858 256.604 419.324 257.393 419.805 258.206C420.227 258.911 420.65 259.616 421.085 260.342C422 262.366 422 262.366 422 266.366C420.679 266.929 420.679 266.929 419.332 267.503C418.171 268.014 417.009 268.526 415.812 269.053C414.664 269.552 413.515 270.051 412.332 270.565C408.864 272.439 406.703 274.533 404 277.366C401.704 278.449 399.365 279.444 397 280.366C392.062 282.637 387.469 285.274 382.891 288.194C376.16 292.366 376.16 292.366 373 292.366C372.67 293.356 372.34 294.346 372 295.366C370.363 296.428 370.363 296.428 368.312 297.366C367.592 297.702 366.871 298.039 366.129 298.385C365.426 298.709 364.724 299.033 364 299.366C362.391 300.201 362.391 300.201 360.75 301.053C358.455 302.149 356.483 302.888 354 303.366C354 304.026 354 304.686 354 305.366C348.39 308.336 342.78 311.306 337 314.366C337 315.356 337 316.346 337 317.366C339.97 318.356 342.94 319.346 346 320.366C346 321.026 346 321.686 346 322.366C346.99 322.696 347.98 323.026 349 323.366C349 324.026 349 324.686 349 325.366C349.86 325.634 350.72 325.902 351.605 326.178C354.991 327.363 358.104 328.768 361.312 330.366C362.361 330.882 363.409 331.397 364.488 331.928C367 333.366 367 333.366 368 335.366C370.527 336.021 370.527 336.021 373 336.366C373 337.026 373 337.686 373 338.366C373.65 338.593 374.299 338.82 374.969 339.053C379.825 341.156 384.239 343.999 388.762 346.733C392.456 348.943 396 350.767 400 352.366C402.306 353.768 404.563 355.192 406.812 356.678C408.051 357.486 409.289 358.293 410.527 359.1C411.121 359.489 411.716 359.878 412.328 360.278C415.522 362.356 418.762 364.358 422 366.366C420.602 370.05 418.952 373.471 417.062 376.928C416.558 377.858 416.054 378.787 415.535 379.745C414 382.366 414 382.366 412.402 384.46C410.977 386.397 410.255 388.033 409.5 390.303C408.327 393.59 407.053 396.51 405 399.366C404.34 399.366 403.68 399.366 403 399.366C402.71 399.946 402.42 400.526 402.121 401.124C399.062 407.241 399.062 407.241 397.996 409.362C397.183 410.998 396.4 412.649 395.625 414.303C393.797 417.749 391.676 420.897 389.492 424.124C385.79 429.513 385.79 429.513 383.5 435.553C383 437.366 383 437.366 381.125 439.178C378.917 441.451 378.049 443.467 376.91 446.385C375.848 448.697 374.516 450.654 373.062 452.741C370.078 457.07 367.998 461.52 366 466.366C365.67 467.026 365.34 467.686 365 468.366C364.34 468.366 363.68 468.366 363 468.366C362.34 469.686 361.68 471.006 361 472.366C356.512 471.853 354.455 470.163 351 467.366C349.298 466.627 347.594 465.891 345.871 465.202C343.155 463.988 340.748 462.374 338.25 460.768C330.029 455.641 330.029 455.641 321 452.366C319.667 451.033 318.333 449.699 317 448.366C315.031 447.306 313.036 446.291 311 445.366C311 444.706 311 444.046 311 443.366C310.172 443.121 309.345 442.876 308.492 442.624C304.467 441.174 300.868 439.294 297.125 437.241C296.437 436.868 295.748 436.496 295.039 436.112C293.357 435.201 291.678 434.284 290 433.366C290 432.706 290 432.046 290 431.366C289.154 431.118 288.309 430.871 287.438 430.616C277.889 427.144 277.889 427.144 276 423.366C273.473 422.71 273.473 422.71 271 422.366C270.845 427.614 270.771 432.856 270.768 438.107C270.756 439.889 270.723 441.671 270.667 443.452C270.087 454.173 270.087 454.173 274.58 463.421C277.683 465.809 277.683 465.809 280.931 467.597C284.204 469.484 286.424 471.623 289 474.366C290.857 475.925 292.741 477.435 294.645 478.936C296 480.366 296 480.366 296 483.366C296.598 483.61 297.196 483.853 297.812 484.104C304 487.673 306.446 496.027 308.375 502.491C312.217 518.621 310.447 533.907 301.75 548.178C300.532 549.93 299.281 551.659 298 553.366C297.319 554.29 296.639 555.214 295.938 556.167C288.198 566.159 278.692 574.33 267 579.366C266.01 579.366 265.02 579.366 264 579.366C263.67 580.356 263.34 581.346 263 582.366C260.235 583.795 257.171 584.503 254.188 585.366C253.406 585.613 252.624 585.861 251.818 586.116C236.214 590.75 220.187 591.851 203.999 591.702C201.237 591.678 198.476 591.682 195.715 591.688C182.546 591.668 169.7 591.168 157 587.366C155.338 587.032 153.671 586.717 152 586.428C147.647 585.596 143.992 584.275 140 582.366C140 582.036 140 581.706 140 581.366C151.55 581.036 163.1 580.706 175 580.366C175 579.706 175 579.046 175 578.366C177.841 577.419 180.008 577.136 182.973 576.936C184.447 576.826 184.447 576.826 185.951 576.714C187.998 576.567 190.045 576.426 192.092 576.292C197.966 575.841 203.21 574.898 208.809 573.066C211.552 572.19 214.281 571.677 217.125 571.241C218.123 571.086 219.12 570.932 220.148 570.772C223.762 570.257 227.374 569.784 231 569.366C231 568.706 231 568.046 231 567.366C231.771 567.1 232.542 566.835 233.336 566.561C234.339 566.208 235.342 565.855 236.375 565.491C237.373 565.143 238.37 564.795 239.398 564.436C242.104 563.518 242.104 563.518 244 561.366C245.134 560.995 246.269 560.623 247.438 560.241C252.525 558.458 256.448 555.281 260.68 552.01C263 550.366 263 550.366 265 550.366C265 549.706 265 549.046 265 548.366C266.644 546.677 268.314 545.013 270 543.366C277.023 535.31 278.358 527.713 278.293 517.288C277.866 513.031 276.563 510.759 274 507.366C273.34 507.036 272.68 506.706 272 506.366C272.012 507.582 272.023 508.797 272.035 510.05C272.045 511.634 272.054 513.219 272.062 514.803C272.071 515.606 272.079 516.408 272.088 517.235C272.097 519.279 272.052 521.323 272 523.366C271 524.366 271 524.366 268.987 524.489C267.65 524.488 267.65 524.488 266.286 524.486C265.267 524.488 264.247 524.489 263.197 524.49C262.069 524.487 260.941 524.483 259.779 524.479C258.599 524.48 257.418 524.48 256.202 524.48C252.957 524.479 249.711 524.474 246.465 524.467C243.077 524.461 239.688 524.46 236.299 524.459C229.878 524.456 223.458 524.448 217.037 524.438C209.728 524.427 202.42 524.421 195.112 524.416C180.075 524.406 165.037 524.388 150 524.366C150.005 523.3 150.01 522.233 150.016 521.135C150.06 511.085 150.062 501.036 150.023 490.986C150.005 485.819 150.001 480.653 150.031 475.486C150.059 470.5 150.049 465.515 150.011 460.528C150.004 458.626 150.01 456.724 150.031 454.821C150.058 452.155 150.035 449.494 150 446.828C150.019 446.042 150.039 445.256 150.059 444.446C150.075 441.924 150.075 441.924 149 438.366C147.077 436.675 145.186 435.525 142.91 434.358C141 433.366 141 433.366 139 431.366C134.646 430.762 132.465 432.033 128.938 434.491C124.977 437.142 121.044 439.422 116.75 441.491C112.733 443.438 109.207 445.505 105.66 448.198C102.337 450.536 98.146 453.366 94 453.366C93.67 454.356 93.34 455.346 93 456.366C91.68 456.366 90.36 456.366 89 456.366C89 457.026 89 457.686 89 458.366C87.903 458.909 86.806 459.451 85.6758 460.01C84.2213 460.733 82.7669 461.456 81.3125 462.178C80.5913 462.535 79.87 462.891 79.127 463.259C71.6452 466.677 71.6452 466.677 66 472.366C63.375 472.553 63.375 472.553 61 472.366C57 465.616 57 465.616 57 463.366C56.01 463.036 55.02 462.706 54 462.366C53.043 460.616 53.043 460.616 52.1875 458.366C50.7258 454.802 49.0414 451.819 46.8125 448.678C44.427 445.253 43.2187 442.63 43 438.366C42.01 438.036 41.02 437.706 40 437.366C38.7539 435.257 38.7539 435.257 37.5625 432.616C35.7267 428.729 33.7093 425.707 31 422.366C30.2749 420.671 29.5515 418.974 28.8433 417.272C27.4916 414.217 25.8058 411.375 24.125 408.491C23.4191 407.267 22.7134 406.043 22.0078 404.819C20.8004 402.743 19.5884 400.669 18.3672 398.6C17.916 397.822 17.4648 397.043 17 396.241C16.6081 395.578 16.2163 394.916 15.8125 394.233C15 392.366 15 392.366 15 388.366C14.01 388.036 13.02 387.706 12 387.366C10.3945 385.151 10.3945 385.151 8.8125 382.428C8.2827 381.533 7.75289 380.637 7.20703 379.714C6 377.366 6 377.366 6 375.366C5.34 375.366 4.68 375.366 4 375.366C0.679688 370.288 0.679688 370.288 0 368.366C1.10047 364.499 3.51792 363.088 6.875 361.116C7.73867 360.595 8.60234 360.074 9.49219 359.538C12 358.366 12 358.366 16 358.366C16.33 357.376 16.66 356.386 17 355.366C19.3585 353.96 21.672 352.707 24.125 351.491C25.5137 350.78 26.9004 350.065 28.2852 349.346C28.9104 349.028 29.5357 348.71 30.1799 348.382C32.6414 347.008 34.8396 345.36 37.0703 343.643C40.457 341.401 44.1617 339.733 47.8057 337.954C53.1579 335.328 58.1127 332.391 62.9883 328.971C69.6449 324.359 76.7188 320.867 84 317.366C83.8566 315.459 83.8566 315.459 83 313.366C80.8779 311.642 80.8779 311.642 78.25 310.241C77.3889 309.743 76.5278 309.246 75.6406 308.733C73.1377 307.437 70.635 306.361 68 305.366C68 304.706 68 304.046 68 303.366C66.68 303.036 65.36 302.706 64 302.366C64 301.706 64 301.046 64 300.366C63.1814 300.299 62.3629 300.232 61.5195 300.163C56.9687 299.132 53.6247 297.053 49.6875 294.616C48.1697 293.699 46.6515 292.782 45.1328 291.866C44.4138 291.429 43.6949 290.992 42.9541 290.542C40.6862 289.177 38.3866 287.882 36.0625 286.616C32.9951 284.937 29.9924 283.175 27 281.366C21.6076 278.107 16.1131 275.058 10.5781 272.05C9.39477 271.402 9.39477 271.402 8.1875 270.741C7.4798 270.357 6.77211 269.973 6.04297 269.577C3.90407 268.309 1.96161 266.891 0 265.366C1.35671 260.715 3.27847 257.009 5.875 252.928C6.60101 251.775 7.32628 250.622 8.05078 249.467C8.69402 248.444 9.33727 247.42 10 246.366C11.3682 244.051 12.6792 241.709 14 239.366C15.1238 237.449 16.2489 235.532 17.375 233.616C21.4485 226.643 25.4276 219.611 29 212.366C29.66 212.366 30.32 212.366 31 212.366C31.0993 211.647 31.1985 210.927 31.3008 210.186C32.0943 206.986 33.3443 204.967 35.1875 202.241C38.7866 196.775 41.9457 191.15 45 185.366C45.66 185.366 46.32 185.366 47 185.366C47.1193 184.63 47.2386 183.894 47.3616 183.136C47.9917 180.402 48.8403 178.475 50.2148 176.046C50.6538 175.263 51.0927 174.481 51.5449 173.675C52.0045 172.871 52.464 172.068 52.9375 171.241C53.3932 170.43 53.8489 169.619 54.3184 168.784C56.1314 165.572 57.9529 162.437 60 159.366C63.5621 158.633 65.0498 159.394 68.2344 161.194C69.4127 161.992 70.5844 162.8 71.75 163.616C76.3693 166.733 80.7867 169.452 86.0352 171.417C88 172.366 88 172.366 90.4062 174.303C93.01 176.374 95.426 177.663 98.4375 179.053C104.513 182.005 110.051 185.504 115.688 189.198C122.98 193.971 130.356 198.148 138.238 201.874C141 203.366 141 203.366 143.605 205.483C145.942 207.32 147.18 207.783 150 208.366C150.03 203.329 150.015 198.296 149.957 193.26C149.944 191.548 149.943 189.836 149.955 188.124C149.97 185.658 149.941 183.195 149.902 180.729C149.924 179.587 149.924 179.587 149.946 178.421C149.861 175.311 149.682 173.024 147.382 170.806C145.478 169.451 145.478 169.451 143.5 168.361C143.005 168.033 142.51 167.704 142 167.366C142 166.706 142 166.046 142 165.366C141.452 165.144 140.904 164.922 140.34 164.694C137.276 162.955 135 160.617 132.562 158.116C131.636 157.183 130.709 156.249 129.754 155.288C115.497 140.351 108.567 121.939 108 101.366C107.972 100.358 107.943 99.3498 107.914 98.3112C107.728 83.9499 108.884 70.0865 116 57.3659C116.596 56.14 116.596 56.14 117.203 54.8894C127.911 33.5359 148.091 18.0141 170 9.36592C170.969 8.82967 171.939 8.29342 172.938 7.74092C176.241 6.25787 178.424 6.11051 182 6.36592C182 5.70592 182 5.04592 182 4.36592C195.143 0.184063 208.018 0.0222136 221.699 0.0502495ZM286 30.3659C286.188 34.1916 286.188 34.1916 288 37.3659C290.958 37.6993 290.958 37.6993 294 37.3659C296.367 34.5177 296.367 34.5177 295.625 31.1784C295.419 30.2503 295.213 29.3222 295 28.3659C289.979 27.863 289.979 27.863 286 30.3659ZM182 140.366C182 180.956 182 221.546 182 263.366C176.221 260.889 170.741 258.421 165.375 255.178C162.051 253.051 162.051 253.051 158 253.366C157.67 252.376 157.34 251.386 157 250.366C154.922 248.819 154.922 248.819 152.375 247.428C151.461 246.902 150.547 246.377 149.605 245.835C148.746 245.35 147.886 244.865 147 244.366C145.36 243.407 145.36 243.407 143.688 242.428C139.18 239.862 134.575 237.47 129.988 235.05C127 233.366 127 233.366 124.73 231.651C123.092 230.167 123.092 230.167 121 230.366C121 229.706 121 229.046 121 228.366C119.298 227.809 119.298 227.809 117.562 227.241C113.217 225.64 109.711 223.286 105.98 220.573C103.96 219.106 103.96 219.106 101 219.366C101 218.706 101 218.046 101 217.366C99.9069 216.83 98.8138 216.293 97.6875 215.741C93.15 213.484 88.7361 211.022 84.3203 208.538C82.1357 207.216 82.1357 207.216 80 207.366C79.34 205.716 78.68 204.066 78 202.366C75.7147 201.778 75.7147 201.778 73 202.366C68.3622 207.445 66.6335 212.766 65 219.366C64.34 219.366 63.68 219.366 63 219.366C59.6701 225.095 59.6701 225.095 56.9375 231.116C56 233.366 56 233.366 54.1875 235.616C49.5959 241.388 46.4736 246.947 46 254.366C50.7956 257.707 55.7742 260.317 61.0527 262.809C64.2272 264.347 66.5718 265.834 69 268.366C72.1084 269.093 72.1084 269.093 75 269.366C75 270.026 75 270.686 75 271.366C75.9591 271.521 75.9591 271.521 76.9375 271.678C77.9584 272.019 77.9584 272.019 79 272.366C79.33 273.356 79.66 274.346 80 275.366C85.8845 279.014 92.2475 281.831 99 283.366C99 284.026 99 284.686 99 285.366C103.888 288.697 109.114 291.572 114.562 293.866C118.69 295.667 122.258 298.011 126.027 300.464C129.061 302.405 132.137 304.242 135.25 306.053C136.241 306.631 137.233 307.208 138.254 307.803C139.913 308.747 141.585 309.671 143.277 310.553C147.74 312.89 147.74 312.89 149.125 315.428C149 317.366 149 317.366 147.828 318.866C145.547 320.737 143.43 321.408 140.625 322.303C136.368 323.773 133.322 325.245 130 328.366C126.85 331.008 123.944 332.201 120 333.366C120 334.026 120 334.686 120 335.366C119.319 335.613 118.639 335.861 117.938 336.116C115.084 337.33 112.489 338.795 109.82 340.366C108 341.366 108 341.366 104.5 342.803C101.787 344.015 99.9943 345.007 97.6875 346.741C94.1557 349.392 90.387 351.199 86.418 353.108C83.5925 354.578 81.1672 356.348 78.6289 358.257C76.5616 359.665 74.3361 360.511 72.0156 361.421C69.3464 362.672 66.9677 364.255 64.5 365.866C60.4231 368.526 56.5473 370.648 52 372.366C52 373.026 52 373.686 52 374.366C50 375.366 48 376.366 46 377.366C46.5348 382.714 48.4669 386.724 51 391.366C51.66 391.366 52.32 391.366 53 391.366C53.2849 392.096 53.5698 392.825 53.8633 393.577C56.956 401.165 60.9678 408.032 65.4297 414.889C67.1658 417.627 68.6069 420.44 70 423.366C70.9839 425.042 71.9786 426.712 73 428.366C77.9582 427.915 79.585 426.826 83 423.366C85.2344 421.979 85.2344 421.979 87.75 420.678C92.599 418.114 97.4062 415.491 102.188 412.803C103.222 412.223 103.222 412.223 104.277 411.631C107.842 409.62 111.359 407.564 114.812 405.366C118 403.366 118 403.366 121 402.366C121.004 401.616 121.008 400.866 121.012 400.094C121.262 374.075 121.262 374.075 125.941 364.651C127.28 362.181 127.28 362.181 127 358.366C127.66 358.366 128.32 358.366 129 358.366C129.392 357.335 129.784 356.303 130.188 355.241C131.364 352.453 132.703 350.336 134.688 348.053C137.217 345.704 137.217 345.704 137 343.366C137.66 343.366 138.32 343.366 139 343.366C140.508 341.84 140.508 341.84 142 339.928C144.797 336.468 144.797 336.468 147 335.366C147 334.706 147 334.046 147 333.366C147.701 333.124 148.402 332.881 149.125 332.632C152.455 331.166 155.069 329.27 158 327.116C164.314 322.582 170.814 319.365 178 316.366C178 315.706 178 315.046 178 314.366C179.32 314.366 180.64 314.366 182 314.366C182 313.706 182 313.046 182 312.366C182.557 312.196 183.114 312.026 183.688 311.85C188.368 310.364 192.656 308.625 197.004 306.35C200.242 304.753 203.602 303.58 207 302.366C207 301.706 207 301.046 207 300.366C207.784 300.16 208.567 299.953 209.375 299.741C213.423 298.206 216.803 296.155 220.473 293.882C223.277 292.2 226.139 290.775 229.113 289.421C231.649 288.003 233.76 286.213 236 284.366C237.237 283.393 237.237 283.393 238.5 282.401C247.305 275.454 256.723 267.461 262 257.366C262 256.376 262 255.386 262 254.366C256.17 254.614 252.889 256.457 248.211 259.893C246 261.366 246 261.366 241 263.366C241 222.776 241 182.186 241 140.366C221.53 140.366 202.06 140.366 182 140.366ZM341.812 205.866C340.911 206.33 340.01 206.794 339.082 207.272C338.395 207.633 337.708 207.994 337 208.366C337 209.026 337 209.686 337 210.366C336.319 210.448 335.639 210.531 334.938 210.616C331.125 211.589 328.359 213.324 325 215.366C325 216.026 325 216.686 325 217.366C324.175 217.613 323.35 217.861 322.5 218.116C319.263 219.272 316.307 220.513 313.293 222.151C311 223.366 311 223.366 308.113 224.55C304.726 226.183 302.519 227.554 300 230.366C298.558 234.623 298.532 239.108 298.32 243.561C298.093 248.285 297.171 252.624 295.938 257.178C294.843 261.232 293.763 265.236 293 269.366C292.34 269.366 291.68 269.366 291 269.366C290.423 270.542 289.845 271.717 289.25 272.928C288.501 274.408 287.751 275.887 287 277.366C286.443 278.48 285.886 279.593 285.312 280.741C282.881 284.964 279.528 288.389 276.219 291.936C273.97 294.34 273.97 294.34 271.965 296.948C270.127 299.209 268.274 301.041 266.062 302.928C265.028 303.818 265.028 303.818 263.973 304.725C262.345 306.079 260.677 307.386 259 308.678C258.34 309.235 257.68 309.792 257 310.366C257 311.026 257 311.686 257 312.366C256.299 312.593 255.598 312.82 254.875 313.053C252.014 314.359 250.036 315.99 247.659 318.013C244.975 320.202 242.105 322.067 239.188 323.928C238.575 324.32 237.963 324.713 237.332 325.116C232.725 328.015 228.076 330.389 223 332.366C219.288 333.929 215.644 335.526 212.062 337.366C208.14 339.362 204.143 340.886 200 342.366C200 343.026 200 343.686 200 344.366C199.162 344.621 198.324 344.876 197.461 345.139C193.668 346.484 190.198 348.156 186.625 349.991C185.984 350.316 185.344 350.641 184.684 350.975C183.121 351.769 181.56 352.567 180 353.366C180 354.026 180 354.686 180 355.366C179.419 355.641 178.837 355.915 178.238 356.198C172.037 359.434 162.609 365.463 160.344 372.366C159.996 374.482 159.996 374.482 160 377.366C164.654 376.8 168.179 374.742 172.125 372.366C178.664 368.478 178.664 368.478 182 367.366C182 408.616 182 449.866 182 492.366C214.929 498.938 214.929 498.938 242 491.366C242.106 489.87 242.142 488.369 242.151 486.869C242.16 485.897 242.168 484.926 242.177 483.924C242.181 482.85 242.185 481.775 242.189 480.667C242.198 479.542 242.206 478.417 242.215 477.258C242.232 474.805 242.247 472.352 242.26 469.9C242.281 466.021 242.308 462.143 242.337 458.265C242.397 450.028 242.449 441.791 242.5 433.553C242.559 424.022 242.621 414.491 242.692 404.96C242.718 401.133 242.739 397.306 242.76 393.48C242.776 391.137 242.793 388.795 242.811 386.453C242.815 385.384 242.819 384.315 242.823 383.214C242.832 382.234 242.84 381.254 242.849 380.244C242.854 379.394 242.859 378.543 242.864 377.667C242.996 375.442 243.382 373.502 244 371.366C253.719 373.081 253.719 373.081 256.371 375.741C258.373 377.738 260.513 379.04 262.938 380.491C263.792 381.009 264.647 381.527 265.527 382.061C267.746 383.232 269.586 383.798 272 384.366C272.495 384.882 272.99 385.397 273.5 385.928C275.135 387.827 275.135 387.827 279 387.366C279 388.026 279 388.686 279 389.366C280.072 389.82 281.145 390.273 282.25 390.741C283.5 391.282 284.75 391.823 286 392.366C286.763 392.696 287.526 393.026 288.312 393.366C290 394.366 290 394.366 292 397.366C294.266 398.574 294.266 398.574 296.938 399.616C302.091 401.849 306.607 404.582 311.293 407.659C316.899 411.194 322.835 413.959 329 416.366C329 417.026 329 417.686 329 418.366C329.615 418.62 330.23 418.874 330.863 419.135C331.672 419.48 332.48 419.824 333.312 420.178C334.113 420.515 334.914 420.851 335.738 421.198C337.996 422.364 339.28 423.53 341 425.366C344.644 427.795 346.712 427.528 351 427.366C351.66 425.056 352.32 422.746 353 420.366C353.66 420.366 354.32 420.366 355 420.366C355.352 419.627 355.704 418.889 356.066 418.128C359.123 411.846 362.443 405.948 366.266 400.104C368.576 396.456 370.615 392.686 372.641 388.874C374 386.366 374 386.366 375.672 383.796C377.32 381.242 377.32 381.242 377 377.366C375.984 376.797 374.968 376.229 373.922 375.643C366.571 371.523 359.247 367.366 351.977 363.104C344.305 358.624 336.576 354.245 328.826 349.904C322.149 346.164 315.536 342.348 309 338.366C306.511 336.87 304.02 335.378 301.527 333.889C299.761 332.825 298.004 331.745 296.254 330.655C294.922 329.831 294.922 329.831 293.562 328.991C292.759 328.488 291.956 327.985 291.129 327.467C288.955 326.136 288.955 326.136 286 326.366C285.67 325.376 285.34 324.386 285 323.366C283.358 322.641 281.684 321.988 280 321.366C278.761 320.676 277.532 319.966 276.312 319.241C273.344 317.202 273.344 317.202 271 317.366C271 316.376 271 315.386 271 314.366C271.731 314.091 272.462 313.817 273.215 313.534C275.85 312.429 278.135 311.177 280.562 309.678C281.86 308.89 281.86 308.89 283.184 308.085C284.113 307.517 285.042 306.95 286 306.366C297.472 299.397 297.472 299.397 302.375 297.741C305.757 296.458 307.742 295.065 310.402 292.675C312.838 290.679 315.539 289.3 318.309 287.819C321.597 286.044 324.827 284.172 328.062 282.303C332.965 279.484 337.901 276.814 343 274.366C343 273.706 343 273.046 343 272.366C343.681 272.118 344.361 271.871 345.062 271.616C347.833 270.437 350.365 269.038 352.969 267.534C356.686 265.396 360.439 263.324 364.188 261.241C364.981 260.799 365.774 260.357 366.592 259.901C367.359 259.474 368.127 259.048 368.918 258.608C369.607 258.225 370.295 257.842 371.005 257.447C372.983 256.375 374.982 255.36 377 254.366C377.649 249.381 375.426 246.405 372.688 242.491C369.534 237.913 367.047 233.548 365 228.366C364.34 228.366 363.68 228.366 363 228.366C362.598 226.788 362.598 226.788 362.188 225.178C361.12 221.752 359.932 219.345 358 216.366C357.67 215.665 357.34 214.963 357 214.241C356.1 212.318 356.1 212.318 354.562 210.991C352.402 208.744 351.309 206.172 350 203.366C346.51 203.366 344.885 204.27 341.812 205.866Z"/>
</mask>
<path d="M221.699 0.0502495C224.927 0.0534127 228.153 0.0298774 231.381 0.00459519C242.939 -0.030966 253.75 0.0301795 264.625 4.4272C267.391 5.52051 270.062 5.95592 273 6.36592C273 7.02592 273 7.68592 273 8.36592C273.568 8.54768 274.137 8.72944 274.723 8.9167C279.607 10.5068 284.31 12.2705 289 14.3659C289 15.0259 289 15.6859 289 16.3659C289.949 16.5309 290.897 16.6959 291.875 16.8659C297.555 18.5034 301.66 22.5156 306 26.3659C307.237 27.4603 307.237 27.4603 308.5 28.5769C315.467 35.1081 319.622 42.0461 320.121 51.7136C320.238 56.3854 320.234 60.1465 318 64.3659C317.629 65.129 317.257 65.8922 316.875 66.6784C316.586 67.2353 316.298 67.7922 316 68.3659C314.68 68.3659 313.36 68.3659 312 68.3659C312 69.0259 312 69.6859 312 70.3659C302.114 74.8825 292.393 72.3062 282.703 68.7526C280 67.3659 280 67.3659 279 64.3659C277.356 63.6457 275.684 62.9876 274 62.3659C272.248 61.2977 270.52 60.1909 268.812 59.0534C248.156 45.829 224.322 40.1257 199.887 45.3034C197.216 45.9516 195.067 46.7659 192.5 47.8659C189.015 49.3596 185.819 50.1474 182.113 50.8386C179.946 51.2956 179.946 51.2956 177.918 52.4245C176 53.3659 176 53.3659 173 53.3659C173 54.0259 173 54.6859 173 55.3659C171.907 55.8197 170.814 56.2734 169.688 56.7409C160.518 61.3584 152.935 68.8793 149 78.3659C148.622 79.2347 148.245 80.1036 147.855 80.9987C144.299 90.2227 144.626 96.7264 144 107.366C186.57 107.366 229.14 107.366 273 107.366C272.75 145.741 272.75 145.741 272.577 157.805C272.584 161.411 272.584 161.411 272.606 165.016C272.608 166.608 272.587 168.199 272.547 169.79C272.066 178.863 272.066 178.863 275.228 187.075C278.437 190.411 282.133 192.837 286 195.366C286.33 196.026 286.66 196.686 287 197.366C289.875 197.616 289.875 197.616 293 197.366C294.016 196.382 295.013 195.379 296 194.366C297.722 193.338 299.476 192.363 301.25 191.428C302.236 190.902 303.222 190.377 304.238 189.835C305.15 189.35 306.061 188.865 307 188.366C310.172 186.578 313.323 184.764 316.461 182.917C321.873 179.736 327.312 176.632 332.813 173.609C339.132 170.135 345.379 166.695 351.273 162.522C354.983 160.038 357.497 159.116 362 159.366C362.33 160.686 362.66 162.006 363 163.366C363.66 163.366 364.32 163.366 365 163.366C365.398 164.102 365.797 164.838 366.207 165.596C366.737 166.572 367.267 167.548 367.812 168.553C368.335 169.516 368.857 170.479 369.395 171.471C370.377 173.243 371.383 175.004 372.426 176.741C374.487 180.177 376.424 183.679 378.375 187.178C381.814 193.345 381.814 193.345 385.5 199.366C388.416 203.906 390.99 208.64 393.613 213.353C396.282 218.135 399.067 222.824 402.004 227.448C403 229.366 403 229.366 403 232.366C403.66 232.366 404.32 232.366 405 232.366C405.306 232.94 405.611 233.513 405.926 234.104C408.484 238.853 411.094 243.548 413.848 248.186C414.345 249.029 414.843 249.872 415.356 250.74C416.361 252.436 417.373 254.127 418.392 255.814C418.858 256.604 419.324 257.393 419.805 258.206C420.227 258.911 420.65 259.616 421.085 260.342C422 262.366 422 262.366 422 266.366C420.679 266.929 420.679 266.929 419.332 267.503C418.171 268.014 417.009 268.526 415.812 269.053C414.664 269.552 413.515 270.051 412.332 270.565C408.864 272.439 406.703 274.533 404 277.366C401.704 278.449 399.365 279.444 397 280.366C392.062 282.637 387.469 285.274 382.891 288.194C376.16 292.366 376.16 292.366 373 292.366C372.67 293.356 372.34 294.346 372 295.366C370.363 296.428 370.363 296.428 368.312 297.366C367.592 297.702 366.871 298.039 366.129 298.385C365.426 298.709 364.724 299.033 364 299.366C362.391 300.201 362.391 300.201 360.75 301.053C358.455 302.149 356.483 302.888 354 303.366C354 304.026 354 304.686 354 305.366C348.39 308.336 342.78 311.306 337 314.366C337 315.356 337 316.346 337 317.366C339.97 318.356 342.94 319.346 346 320.366C346 321.026 346 321.686 346 322.366C346.99 322.696 347.98 323.026 349 323.366C349 324.026 349 324.686 349 325.366C349.86 325.634 350.72 325.902 351.605 326.178C354.991 327.363 358.104 328.768 361.312 330.366C362.361 330.882 363.409 331.397 364.488 331.928C367 333.366 367 333.366 368 335.366C370.527 336.021 370.527 336.021 373 336.366C373 337.026 373 337.686 373 338.366C373.65 338.593 374.299 338.82 374.969 339.053C379.825 341.156 384.239 343.999 388.762 346.733C392.456 348.943 396 350.767 400 352.366C402.306 353.768 404.563 355.192 406.812 356.678C408.051 357.486 409.289 358.293 410.527 359.1C411.121 359.489 411.716 359.878 412.328 360.278C415.522 362.356 418.762 364.358 422 366.366C420.602 370.05 418.952 373.471 417.062 376.928C416.558 377.858 416.054 378.787 415.535 379.745C414 382.366 414 382.366 412.402 384.46C410.977 386.397 410.255 388.033 409.5 390.303C408.327 393.59 407.053 396.51 405 399.366C404.34 399.366 403.68 399.366 403 399.366C402.71 399.946 402.42 400.526 402.121 401.124C399.062 407.241 399.062 407.241 397.996 409.362C397.183 410.998 396.4 412.649 395.625 414.303C393.797 417.749 391.676 420.897 389.492 424.124C385.79 429.513 385.79 429.513 383.5 435.553C383 437.366 383 437.366 381.125 439.178C378.917 441.451 378.049 443.467 376.91 446.385C375.848 448.697 374.516 450.654 373.062 452.741C370.078 457.07 367.998 461.52 366 466.366C365.67 467.026 365.34 467.686 365 468.366C364.34 468.366 363.68 468.366 363 468.366C362.34 469.686 361.68 471.006 361 472.366C356.512 471.853 354.455 470.163 351 467.366C349.298 466.627 347.594 465.891 345.871 465.202C343.155 463.988 340.748 462.374 338.25 460.768C330.029 455.641 330.029 455.641 321 452.366C319.667 451.033 318.333 449.699 317 448.366C315.031 447.306 313.036 446.291 311 445.366C311 444.706 311 444.046 311 443.366C310.172 443.121 309.345 442.876 308.492 442.624C304.467 441.174 300.868 439.294 297.125 437.241C296.437 436.868 295.748 436.496 295.039 436.112C293.357 435.201 291.678 434.284 290 433.366C290 432.706 290 432.046 290 431.366C289.154 431.118 288.309 430.871 287.438 430.616C277.889 427.144 277.889 427.144 276 423.366C273.473 422.71 273.473 422.71 271 422.366C270.845 427.614 270.771 432.856 270.768 438.107C270.756 439.889 270.723 441.671 270.667 443.452C270.087 454.173 270.087 454.173 274.58 463.421C277.683 465.809 277.683 465.809 280.931 467.597C284.204 469.484 286.424 471.623 289 474.366C290.857 475.925 292.741 477.435 294.645 478.936C296 480.366 296 480.366 296 483.366C296.598 483.61 297.196 483.853 297.812 484.104C304 487.673 306.446 496.027 308.375 502.491C312.217 518.621 310.447 533.907 301.75 548.178C300.532 549.93 299.281 551.659 298 553.366C297.319 554.29 296.639 555.214 295.938 556.167C288.198 566.159 278.692 574.33 267 579.366C266.01 579.366 265.02 579.366 264 579.366C263.67 580.356 263.34 581.346 263 582.366C260.235 583.795 257.171 584.503 254.188 585.366C253.406 585.613 252.624 585.861 251.818 586.116C236.214 590.75 220.187 591.851 203.999 591.702C201.237 591.678 198.476 591.682 195.715 591.688C182.546 591.668 169.7 591.168 157 587.366C155.338 587.032 153.671 586.717 152 586.428C147.647 585.596 143.992 584.275 140 582.366C140 582.036 140 581.706 140 581.366C151.55 581.036 163.1 580.706 175 580.366C175 579.706 175 579.046 175 578.366C177.841 577.419 180.008 577.136 182.973 576.936C184.447 576.826 184.447 576.826 185.951 576.714C187.998 576.567 190.045 576.426 192.092 576.292C197.966 575.841 203.21 574.898 208.809 573.066C211.552 572.19 214.281 571.677 217.125 571.241C218.123 571.086 219.12 570.932 220.148 570.772C223.762 570.257 227.374 569.784 231 569.366C231 568.706 231 568.046 231 567.366C231.771 567.1 232.542 566.835 233.336 566.561C234.339 566.208 235.342 565.855 236.375 565.491C237.373 565.143 238.37 564.795 239.398 564.436C242.104 563.518 242.104 563.518 244 561.366C245.134 560.995 246.269 560.623 247.438 560.241C252.525 558.458 256.448 555.281 260.68 552.01C263 550.366 263 550.366 265 550.366C265 549.706 265 549.046 265 548.366C266.644 546.677 268.314 545.013 270 543.366C277.023 535.31 278.358 527.713 278.293 517.288C277.866 513.031 276.563 510.759 274 507.366C273.34 507.036 272.68 506.706 272 506.366C272.012 507.582 272.023 508.797 272.035 510.05C272.045 511.634 272.054 513.219 272.062 514.803C272.071 515.606 272.079 516.408 272.088 517.235C272.097 519.279 272.052 521.323 272 523.366C271 524.366 271 524.366 268.987 524.489C267.65 524.488 267.65 524.488 266.286 524.486C265.267 524.488 264.247 524.489 263.197 524.49C262.069 524.487 260.941 524.483 259.779 524.479C258.599 524.48 257.418 524.48 256.202 524.48C252.957 524.479 249.711 524.474 246.465 524.467C243.077 524.461 239.688 524.46 236.299 524.459C229.878 524.456 223.458 524.448 217.037 524.438C209.728 524.427 202.42 524.421 195.112 524.416C180.075 524.406 165.037 524.388 150 524.366C150.005 523.3 150.01 522.233 150.016 521.135C150.06 511.085 150.062 501.036 150.023 490.986C150.005 485.819 150.001 480.653 150.031 475.486C150.059 470.5 150.049 465.515 150.011 460.528C150.004 458.626 150.01 456.724 150.031 454.821C150.058 452.155 150.035 449.494 150 446.828C150.019 446.042 150.039 445.256 150.059 444.446C150.075 441.924 150.075 441.924 149 438.366C147.077 436.675 145.186 435.525 142.91 434.358C141 433.366 141 433.366 139 431.366C134.646 430.762 132.465 432.033 128.938 434.491C124.977 437.142 121.044 439.422 116.75 441.491C112.733 443.438 109.207 445.505 105.66 448.198C102.337 450.536 98.146 453.366 94 453.366C93.67 454.356 93.34 455.346 93 456.366C91.68 456.366 90.36 456.366 89 456.366C89 457.026 89 457.686 89 458.366C87.903 458.909 86.806 459.451 85.6758 460.01C84.2213 460.733 82.7669 461.456 81.3125 462.178C80.5913 462.535 79.87 462.891 79.127 463.259C71.6452 466.677 71.6452 466.677 66 472.366C63.375 472.553 63.375 472.553 61 472.366C57 465.616 57 465.616 57 463.366C56.01 463.036 55.02 462.706 54 462.366C53.043 460.616 53.043 460.616 52.1875 458.366C50.7258 454.802 49.0414 451.819 46.8125 448.678C44.427 445.253 43.2187 442.63 43 438.366C42.01 438.036 41.02 437.706 40 437.366C38.7539 435.257 38.7539 435.257 37.5625 432.616C35.7267 428.729 33.7093 425.707 31 422.366C30.2749 420.671 29.5515 418.974 28.8433 417.272C27.4916 414.217 25.8058 411.375 24.125 408.491C23.4191 407.267 22.7134 406.043 22.0078 404.819C20.8004 402.743 19.5884 400.669 18.3672 398.6C17.916 397.822 17.4648 397.043 17 396.241C16.6081 395.578 16.2163 394.916 15.8125 394.233C15 392.366 15 392.366 15 388.366C14.01 388.036 13.02 387.706 12 387.366C10.3945 385.151 10.3945 385.151 8.8125 382.428C8.2827 381.533 7.75289 380.637 7.20703 379.714C6 377.366 6 377.366 6 375.366C5.34 375.366 4.68 375.366 4 375.366C0.679688 370.288 0.679688 370.288 0 368.366C1.10047 364.499 3.51792 363.088 6.875 361.116C7.73867 360.595 8.60234 360.074 9.49219 359.538C12 358.366 12 358.366 16 358.366C16.33 357.376 16.66 356.386 17 355.366C19.3585 353.96 21.672 352.707 24.125 351.491C25.5137 350.78 26.9004 350.065 28.2852 349.346C28.9104 349.028 29.5357 348.71 30.1799 348.382C32.6414 347.008 34.8396 345.36 37.0703 343.643C40.457 341.401 44.1617 339.733 47.8057 337.954C53.1579 335.328 58.1127 332.391 62.9883 328.971C69.6449 324.359 76.7188 320.867 84 317.366C83.8566 315.459 83.8566 315.459 83 313.366C80.8779 311.642 80.8779 311.642 78.25 310.241C77.3889 309.743 76.5278 309.246 75.6406 308.733C73.1377 307.437 70.635 306.361 68 305.366C68 304.706 68 304.046 68 303.366C66.68 303.036 65.36 302.706 64 302.366C64 301.706 64 301.046 64 300.366C63.1814 300.299 62.3629 300.232 61.5195 300.163C56.9687 299.132 53.6247 297.053 49.6875 294.616C48.1697 293.699 46.6515 292.782 45.1328 291.866C44.4138 291.429 43.6949 290.992 42.9541 290.542C40.6862 289.177 38.3866 287.882 36.0625 286.616C32.9951 284.937 29.9924 283.175 27 281.366C21.6076 278.107 16.1131 275.058 10.5781 272.05C9.39477 271.402 9.39477 271.402 8.1875 270.741C7.4798 270.357 6.77211 269.973 6.04297 269.577C3.90407 268.309 1.96161 266.891 0 265.366C1.35671 260.715 3.27847 257.009 5.875 252.928C6.60101 251.775 7.32628 250.622 8.05078 249.467C8.69402 248.444 9.33727 247.42 10 246.366C11.3682 244.051 12.6792 241.709 14 239.366C15.1238 237.449 16.2489 235.532 17.375 233.616C21.4485 226.643 25.4276 219.611 29 212.366C29.66 212.366 30.32 212.366 31 212.366C31.0993 211.647 31.1985 210.927 31.3008 210.186C32.0943 206.986 33.3443 204.967 35.1875 202.241C38.7866 196.775 41.9457 191.15 45 185.366C45.66 185.366 46.32 185.366 47 185.366C47.1193 184.63 47.2386 183.894 47.3616 183.136C47.9917 180.402 48.8403 178.475 50.2148 176.046C50.6538 175.263 51.0927 174.481 51.5449 173.675C52.0045 172.871 52.464 172.068 52.9375 171.241C53.3932 170.43 53.8489 169.619 54.3184 168.784C56.1314 165.572 57.9529 162.437 60 159.366C63.5621 158.633 65.0498 159.394 68.2344 161.194C69.4127 161.992 70.5844 162.8 71.75 163.616C76.3693 166.733 80.7867 169.452 86.0352 171.417C88 172.366 88 172.366 90.4062 174.303C93.01 176.374 95.426 177.663 98.4375 179.053C104.513 182.005 110.051 185.504 115.688 189.198C122.98 193.971 130.356 198.148 138.238 201.874C141 203.366 141 203.366 143.605 205.483C145.942 207.32 147.18 207.783 150 208.366C150.03 203.329 150.015 198.296 149.957 193.26C149.944 191.548 149.943 189.836 149.955 188.124C149.97 185.658 149.941 183.195 149.902 180.729C149.924 179.587 149.924 179.587 149.946 178.421C149.861 175.311 149.682 173.024 147.382 170.806C145.478 169.451 145.478 169.451 143.5 168.361C143.005 168.033 142.51 167.704 142 167.366C142 166.706 142 166.046 142 165.366C141.452 165.144 140.904 164.922 140.34 164.694C137.276 162.955 135 160.617 132.562 158.116C131.636 157.183 130.709 156.249 129.754 155.288C115.497 140.351 108.567 121.939 108 101.366C107.972 100.358 107.943 99.3498 107.914 98.3112C107.728 83.9499 108.884 70.0865 116 57.3659C116.596 56.14 116.596 56.14 117.203 54.8894C127.911 33.5359 148.091 18.0141 170 9.36592C170.969 8.82967 171.939 8.29342 172.938 7.74092C176.241 6.25787 178.424 6.11051 182 6.36592C182 5.70592 182 5.04592 182 4.36592C195.143 0.184063 208.018 0.0222136 221.699 0.0502495ZM286 30.3659C286.188 34.1916 286.188 34.1916 288 37.3659C290.958 37.6993 290.958 37.6993 294 37.3659C296.367 34.5177 296.367 34.5177 295.625 31.1784C295.419 30.2503 295.213 29.3222 295 28.3659C289.979 27.863 289.979 27.863 286 30.3659ZM182 140.366C182 180.956 182 221.546 182 263.366C176.221 260.889 170.741 258.421 165.375 255.178C162.051 253.051 162.051 253.051 158 253.366C157.67 252.376 157.34 251.386 157 250.366C154.922 248.819 154.922 248.819 152.375 247.428C151.461 246.902 150.547 246.377 149.605 245.835C148.746 245.35 147.886 244.865 147 244.366C145.36 243.407 145.36 243.407 143.688 242.428C139.18 239.862 134.575 237.47 129.988 235.05C127 233.366 127 233.366 124.73 231.651C123.092 230.167 123.092 230.167 121 230.366C121 229.706 121 229.046 121 228.366C119.298 227.809 119.298 227.809 117.562 227.241C113.217 225.64 109.711 223.286 105.98 220.573C103.96 219.106 103.96 219.106 101 219.366C101 218.706 101 218.046 101 217.366C99.9069 216.83 98.8138 216.293 97.6875 215.741C93.15 213.484 88.7361 211.022 84.3203 208.538C82.1357 207.216 82.1357 207.216 80 207.366C79.34 205.716 78.68 204.066 78 202.366C75.7147 201.778 75.7147 201.778 73 202.366C68.3622 207.445 66.6335 212.766 65 219.366C64.34 219.366 63.68 219.366 63 219.366C59.6701 225.095 59.6701 225.095 56.9375 231.116C56 233.366 56 233.366 54.1875 235.616C49.5959 241.388 46.4736 246.947 46 254.366C50.7956 257.707 55.7742 260.317 61.0527 262.809C64.2272 264.347 66.5718 265.834 69 268.366C72.1084 269.093 72.1084 269.093 75 269.366C75 270.026 75 270.686 75 271.366C75.9591 271.521 75.9591 271.521 76.9375 271.678C77.9584 272.019 77.9584 272.019 79 272.366C79.33 273.356 79.66 274.346 80 275.366C85.8845 279.014 92.2475 281.831 99 283.366C99 284.026 99 284.686 99 285.366C103.888 288.697 109.114 291.572 114.562 293.866C118.69 295.667 122.258 298.011 126.027 300.464C129.061 302.405 132.137 304.242 135.25 306.053C136.241 306.631 137.233 307.208 138.254 307.803C139.913 308.747 141.585 309.671 143.277 310.553C147.74 312.89 147.74 312.89 149.125 315.428C149 317.366 149 317.366 147.828 318.866C145.547 320.737 143.43 321.408 140.625 322.303C136.368 323.773 133.322 325.245 130 328.366C126.85 331.008 123.944 332.201 120 333.366C120 334.026 120 334.686 120 335.366C119.319 335.613 118.639 335.861 117.938 336.116C115.084 337.33 112.489 338.795 109.82 340.366C108 341.366 108 341.366 104.5 342.803C101.787 344.015 99.9943 345.007 97.6875 346.741C94.1557 349.392 90.387 351.199 86.418 353.108C83.5925 354.578 81.1672 356.348 78.6289 358.257C76.5616 359.665 74.3361 360.511 72.0156 361.421C69.3464 362.672 66.9677 364.255 64.5 365.866C60.4231 368.526 56.5473 370.648 52 372.366C52 373.026 52 373.686 52 374.366C50 375.366 48 376.366 46 377.366C46.5348 382.714 48.4669 386.724 51 391.366C51.66 391.366 52.32 391.366 53 391.366C53.2849 392.096 53.5698 392.825 53.8633 393.577C56.956 401.165 60.9678 408.032 65.4297 414.889C67.1658 417.627 68.6069 420.44 70 423.366C70.9839 425.042 71.9786 426.712 73 428.366C77.9582 427.915 79.585 426.826 83 423.366C85.2344 421.979 85.2344 421.979 87.75 420.678C92.599 418.114 97.4062 415.491 102.188 412.803C103.222 412.223 103.222 412.223 104.277 411.631C107.842 409.62 111.359 407.564 114.812 405.366C118 403.366 118 403.366 121 402.366C121.004 401.616 121.008 400.866 121.012 400.094C121.262 374.075 121.262 374.075 125.941 364.651C127.28 362.181 127.28 362.181 127 358.366C127.66 358.366 128.32 358.366 129 358.366C129.392 357.335 129.784 356.303 130.188 355.241C131.364 352.453 132.703 350.336 134.688 348.053C137.217 345.704 137.217 345.704 137 343.366C137.66 343.366 138.32 343.366 139 343.366C140.508 341.84 140.508 341.84 142 339.928C144.797 336.468 144.797 336.468 147 335.366C147 334.706 147 334.046 147 333.366C147.701 333.124 148.402 332.881 149.125 332.632C152.455 331.166 155.069 329.27 158 327.116C164.314 322.582 170.814 319.365 178 316.366C178 315.706 178 315.046 178 314.366C179.32 314.366 180.64 314.366 182 314.366C182 313.706 182 313.046 182 312.366C182.557 312.196 183.114 312.026 183.688 311.85C188.368 310.364 192.656 308.625 197.004 306.35C200.242 304.753 203.602 303.58 207 302.366C207 301.706 207 301.046 207 300.366C207.784 300.16 208.567 299.953 209.375 299.741C213.423 298.206 216.803 296.155 220.473 293.882C223.277 292.2 226.139 290.775 229.113 289.421C231.649 288.003 233.76 286.213 236 284.366C237.237 283.393 237.237 283.393 238.5 282.401C247.305 275.454 256.723 267.461 262 257.366C262 256.376 262 255.386 262 254.366C256.17 254.614 252.889 256.457 248.211 259.893C246 261.366 246 261.366 241 263.366C241 222.776 241 182.186 241 140.366C221.53 140.366 202.06 140.366 182 140.366ZM341.812 205.866C340.911 206.33 340.01 206.794 339.082 207.272C338.395 207.633 337.708 207.994 337 208.366C337 209.026 337 209.686 337 210.366C336.319 210.448 335.639 210.531 334.938 210.616C331.125 211.589 328.359 213.324 325 215.366C325 216.026 325 216.686 325 217.366C324.175 217.613 323.35 217.861 322.5 218.116C319.263 219.272 316.307 220.513 313.293 222.151C311 223.366 311 223.366 308.113 224.55C304.726 226.183 302.519 227.554 300 230.366C298.558 234.623 298.532 239.108 298.32 243.561C298.093 248.285 297.171 252.624 295.938 257.178C294.843 261.232 293.763 265.236 293 269.366C292.34 269.366 291.68 269.366 291 269.366C290.423 270.542 289.845 271.717 289.25 272.928C288.501 274.408 287.751 275.887 287 277.366C286.443 278.48 285.886 279.593 285.312 280.741C282.881 284.964 279.528 288.389 276.219 291.936C273.97 294.34 273.97 294.34 271.965 296.948C270.127 299.209 268.274 301.041 266.062 302.928C265.028 303.818 265.028 303.818 263.973 304.725C262.345 306.079 260.677 307.386 259 308.678C258.34 309.235 257.68 309.792 257 310.366C257 311.026 257 311.686 257 312.366C256.299 312.593 255.598 312.82 254.875 313.053C252.014 314.359 250.036 315.99 247.659 318.013C244.975 320.202 242.105 322.067 239.188 323.928C238.575 324.32 237.963 324.713 237.332 325.116C232.725 328.015 228.076 330.389 223 332.366C219.288 333.929 215.644 335.526 212.062 337.366C208.14 339.362 204.143 340.886 200 342.366C200 343.026 200 343.686 200 344.366C199.162 344.621 198.324 344.876 197.461 345.139C193.668 346.484 190.198 348.156 186.625 349.991C185.984 350.316 185.344 350.641 184.684 350.975C183.121 351.769 181.56 352.567 180 353.366C180 354.026 180 354.686 180 355.366C179.419 355.641 178.837 355.915 178.238 356.198C172.037 359.434 162.609 365.463 160.344 372.366C159.996 374.482 159.996 374.482 160 377.366C164.654 376.8 168.179 374.742 172.125 372.366C178.664 368.478 178.664 368.478 182 367.366C182 408.616 182 449.866 182 492.366C214.929 498.938 214.929 498.938 242 491.366C242.106 489.87 242.142 488.369 242.151 486.869C242.16 485.897 242.168 484.926 242.177 483.924C242.181 482.85 242.185 481.775 242.189 480.667C242.198 479.542 242.206 478.417 242.215 477.258C242.232 474.805 242.247 472.352 242.26 469.9C242.281 466.021 242.308 462.143 242.337 458.265C242.397 450.028 242.449 441.791 242.5 433.553C242.559 424.022 242.621 414.491 242.692 404.96C242.718 401.133 242.739 397.306 242.76 393.48C242.776 391.137 242.793 388.795 242.811 386.453C242.815 385.384 242.819 384.315 242.823 383.214C242.832 382.234 242.84 381.254 242.849 380.244C242.854 379.394 242.859 378.543 242.864 377.667C242.996 375.442 243.382 373.502 244 371.366C253.719 373.081 253.719 373.081 256.371 375.741C258.373 377.738 260.513 379.04 262.938 380.491C263.792 381.009 264.647 381.527 265.527 382.061C267.746 383.232 269.586 383.798 272 384.366C272.495 384.882 272.99 385.397 273.5 385.928C275.135 387.827 275.135 387.827 279 387.366C279 388.026 279 388.686 279 389.366C280.072 389.82 281.145 390.273 282.25 390.741C283.5 391.282 284.75 391.823 286 392.366C286.763 392.696 287.526 393.026 288.312 393.366C290 394.366 290 394.366 292 397.366C294.266 398.574 294.266 398.574 296.938 399.616C302.091 401.849 306.607 404.582 311.293 407.659C316.899 411.194 322.835 413.959 329 416.366C329 417.026 329 417.686 329 418.366C329.615 418.62 330.23 418.874 330.863 419.135C331.672 419.48 332.48 419.824 333.312 420.178C334.113 420.515 334.914 420.851 335.738 421.198C337.996 422.364 339.28 423.53 341 425.366C344.644 427.795 346.712 427.528 351 427.366C351.66 425.056 352.32 422.746 353 420.366C353.66 420.366 354.32 420.366 355 420.366C355.352 419.627 355.704 418.889 356.066 418.128C359.123 411.846 362.443 405.948 366.266 400.104C368.576 396.456 370.615 392.686 372.641 388.874C374 386.366 374 386.366 375.672 383.796C377.32 381.242 377.32 381.242 377 377.366C375.984 376.797 374.968 376.229 373.922 375.643C366.571 371.523 359.247 367.366 351.977 363.104C344.305 358.624 336.576 354.245 328.826 349.904C322.149 346.164 315.536 342.348 309 338.366C306.511 336.87 304.02 335.378 301.527 333.889C299.761 332.825 298.004 331.745 296.254 330.655C294.922 329.831 294.922 329.831 293.562 328.991C292.759 328.488 291.956 327.985 291.129 327.467C288.955 326.136 288.955 326.136 286 326.366C285.67 325.376 285.34 324.386 285 323.366C283.358 322.641 281.684 321.988 280 321.366C278.761 320.676 277.532 319.966 276.312 319.241C273.344 317.202 273.344 317.202 271 317.366C271 316.376 271 315.386 271 314.366C271.731 314.091 272.462 313.817 273.215 313.534C275.85 312.429 278.135 311.177 280.562 309.678C281.86 308.89 281.86 308.89 283.184 308.085C284.113 307.517 285.042 306.95 286 306.366C297.472 299.397 297.472 299.397 302.375 297.741C305.757 296.458 307.742 295.065 310.402 292.675C312.838 290.679 315.539 289.3 318.309 287.819C321.597 286.044 324.827 284.172 328.062 282.303C332.965 279.484 337.901 276.814 343 274.366C343 273.706 343 273.046 343 272.366C343.681 272.118 344.361 271.871 345.062 271.616C347.833 270.437 350.365 269.038 352.969 267.534C356.686 265.396 360.439 263.324 364.188 261.241C364.981 260.799 365.774 260.357 366.592 259.901C367.359 259.474 368.127 259.048 368.918 258.608C369.607 258.225 370.295 257.842 371.005 257.447C372.983 256.375 374.982 255.36 377 254.366C377.649 249.381 375.426 246.405 372.688 242.491C369.534 237.913 367.047 233.548 365 228.366C364.34 228.366 363.68 228.366 363 228.366C362.598 226.788 362.598 226.788 362.188 225.178C361.12 221.752 359.932 219.345 358 216.366C357.67 215.665 357.34 214.963 357 214.241C356.1 212.318 356.1 212.318 354.562 210.991C352.402 208.744 351.309 206.172 350 203.366C346.51 203.366 344.885 204.27 341.812 205.866Z" fill="black" stroke="white" stroke-width="2" mask="url(#path-2-inside-1_5012_494)"/>
</svg>
